<?xml version="1.0" encoding="UTF-8"?>
<svg xmlns="http://www.w3.org/2000/svg" xmlns:xlink="http://www.w3.org/1999/xlink" width="299.347656" height="285.824219" viewBox="0 0 299.347656 285.824219">
<path fill-rule="nonzero" fill="rgb(7.843137%, 72.54902%, 50.588235%)" fill-opacity="1" d="M 203.171875 91.039062 C 203.589844 91.039062 204.003906 91.039062 204.417969 91.039062 C 208.386719 91.046875 212.289062 91.132812 216.21875 91.738281 C 216.613281 91.800781 217.011719 91.855469 217.410156 91.914062 C 223.105469 92.71875 228.714844 94.027344 234.1875 95.808594 C 234.96875 96.066406 235.746094 96.332031 236.523438 96.609375 L 236.828125 96.714844 C 239.941406 97.824219 242.929688 99.21875 245.800781 100.851562 C 246.847656 101.457031 247.800781 102.160156 248.730469 102.9375 C 248.9375 103.117188 249.144531 103.296875 249.351562 103.480469 L 249.664062 103.753906 C 250.230469 104.25 250.785156 104.75 251.335938 105.261719 C 251.5625 105.46875 251.792969 105.671875 252.027344 105.871094 C 253.304688 106.960938 254.496094 108.128906 255.679688 109.320312 C 255.953125 109.59375 256.230469 109.871094 256.507812 110.148438 C 257.699219 111.332031 258.855469 112.53125 259.941406 113.8125 C 260.175781 114.082031 260.410156 114.351562 260.648438 114.617188 C 262.351562 116.53125 263.945312 118.507812 265.480469 120.5625 C 265.84375 121.046875 266.214844 121.527344 266.589844 122.003906 C 268.023438 123.835938 269.355469 125.726562 270.640625 127.664062 C 270.804688 127.910156 270.964844 128.15625 271.128906 128.402344 C 273.226562 131.558594 275.210938 134.769531 277.070312 138.070312 L 277.273438 138.433594 C 281.074219 145.179688 284.335938 152.164062 287.148438 159.375 L 287.3125 159.792969 C 288.003906 161.570312 288.664062 163.359375 289.300781 165.160156 C 289.394531 165.429688 289.492188 165.703125 289.589844 165.972656 C 292.773438 174.957031 295.28125 184.234375 296.933594 193.917969 C 298.679688 204.324219 298.679688 204.324219 298.648438 209.011719 C 298.640625 209.570312 298.625 210.128906 298.605469 210.6875 L 298.144531 210.6875 L 298.179688 210.957031 C 298.285156 211.804688 298.386719 212.652344 298.492188 213.503906 C 298.546875 213.9375 298.601562 214.375 298.652344 214.8125 C 298.777344 215.808594 298.898438 216.8125 299.011719 217.8125 C 299.042969 218.074219 299.074219 218.339844 299.105469 218.601562 C 299.40625 221.195312 299.347656 223.828125 299.347656 226.4375 L 299.347656 226.820312 C 299.355469 231.058594 299.179688 235.203125 298.648438 239.410156 C 298.59375 239.878906 298.539062 240.347656 298.488281 240.816406 C 298.207031 243.425781 297.765625 246 297.273438 248.578125 C 297.230469 248.8125 297.1875 249.046875 297.140625 249.28125 C 296.636719 251.964844 296.636719 251.964844 296.25 253.03125 C 296.125 253.351562 295.996094 253.671875 295.855469 253.984375 C 294.320312 255.253906 292.6875 256.316406 290.980469 257.339844 C 290.769531 257.464844 290.558594 257.59375 290.347656 257.71875 C 287.925781 259.179688 285.46875 260.578125 282.96875 261.898438 C 282.542969 262.121094 282.117188 262.351562 281.691406 262.582031 C 272.605469 267.507812 262.867188 271.265625 253.078125 274.546875 C 250.109375 275.539062 247.109375 276.414062 244.082031 277.222656 L 243.78125 277.300781 C 243.117188 277.476562 242.457031 277.652344 241.792969 277.820312 L 241.542969 277.886719 C 240.484375 278.160156 239.441406 278.363281 238.355469 278.496094 C 238.707031 277.296875 239.070312 276.105469 239.464844 274.921875 C 241.476562 268.828125 242.910156 262.617188 243.835938 256.269531 C 243.941406 255.515625 244.042969 254.765625 244.140625 254.011719 L 244.195312 253.613281 C 244.328125 252.59375 244.441406 251.570312 244.542969 250.546875 L 244.570312 250.25 C 244.980469 246.125 245.074219 242.019531 245.058594 237.878906 C 245.058594 237.320312 245.058594 236.761719 245.058594 236.203125 C 245.078125 230.664062 244.847656 225.160156 244.074219 219.671875 L 243.96875 218.894531 C 242.832031 210.699219 241.054688 202.707031 238.519531 194.832031 C 237.246094 190.902344 235.824219 187.078125 234.152344 183.304688 C 233.96875 182.886719 233.785156 182.46875 233.605469 182.046875 C 231.347656 176.824219 228.714844 171.792969 225.757812 166.933594 L 225.574219 166.632812 C 223.96875 163.992188 222.257812 161.441406 220.441406 158.941406 C 220.253906 158.679688 220.066406 158.417969 219.878906 158.160156 C 218.027344 155.585938 216.078125 153.085938 214.03125 150.664062 C 213.800781 150.386719 213.570312 150.109375 213.335938 149.835938 C 212.136719 148.402344 210.902344 147.003906 209.628906 145.640625 L 209.421875 145.417969 C 207.917969 143.808594 206.371094 142.246094 204.8125 140.691406 C 204.4375 140.316406 204.0625 139.941406 203.691406 139.566406 C 200.816406 136.683594 200.816406 136.683594 199.375 135.480469 C 199.117188 135.265625 198.867188 135.046875 198.617188 134.828125 C 195.199219 131.851562 191.644531 129.03125 187.960938 126.386719 L 187.675781 126.183594 C 181.8125 121.972656 175.636719 118.273438 169.265625 114.875 C 168.945312 114.703125 168.621094 114.53125 168.300781 114.359375 C 163.753906 111.921875 159.105469 109.789062 154.328125 107.847656 L 154.089844 107.75 C 152.183594 106.976562 150.269531 106.226562 148.328125 105.542969 L 148.328125 105.082031 C 149.566406 104.570312 149.566406 104.570312 150.164062 104.398438 C 150.539062 104.351562 150.539062 104.351562 150.847656 104.355469 C 151 104.367188 151.152344 104.382812 151.308594 104.398438 L 151.765625 103.480469 C 152.894531 102.902344 154.027344 102.335938 155.164062 101.777344 C 155.417969 101.65625 155.667969 101.53125 155.917969 101.40625 C 160.683594 99.058594 165.835938 97.355469 170.929688 95.871094 C 172.550781 95.398438 174.183594 94.964844 175.820312 94.546875 L 176.21875 94.445312 C 180.246094 93.417969 184.316406 92.675781 188.417969 92.027344 L 188.703125 91.980469 C 193.492188 91.214844 198.332031 91.023438 203.171875 91.039062 "/>
<path fill-rule="nonzero" fill="rgb(7.843137%, 72.54902%, 50.588235%)" fill-opacity="1" d="M 154.3125 0 C 154.675781 0.046875 155.035156 0.117188 155.386719 0.210938 C 155.878906 0.394531 156.339844 0.617188 156.808594 0.855469 L 157.214844 1.054688 C 157.574219 1.234375 157.9375 1.414062 158.296875 1.597656 C 158.523438 1.714844 158.753906 1.828125 158.980469 1.941406 C 162.113281 3.519531 165.128906 5.265625 168.113281 7.105469 C 168.425781 7.300781 168.738281 7.492188 169.054688 7.683594 C 173.492188 10.40625 177.769531 13.382812 181.960938 16.472656 L 182.195312 16.648438 C 185.519531 19.097656 188.800781 21.613281 191.980469 24.253906 C 192.285156 24.503906 192.59375 24.753906 192.902344 25.003906 C 194.246094 26.089844 195.542969 27.214844 196.820312 28.378906 C 197.207031 28.730469 197.601562 29.074219 197.996094 29.417969 C 199.726562 30.925781 201.417969 32.472656 203.09375 34.042969 L 203.328125 34.261719 C 204.320312 35.1875 205.292969 36.125 206.242188 37.089844 L 206.242188 37.777344 L 205.933594 37.851562 C 197.132812 39.988281 188.5625 42.480469 180.242188 46.09375 C 172.050781 49.679688 164.125 53.886719 156.671875 58.835938 C 155.230469 59.804688 153.816406 60.808594 152.410156 61.832031 L 152.160156 62.011719 C 149.949219 63.617188 147.8125 65.308594 145.703125 67.042969 C 145.261719 67.410156 144.816406 67.773438 144.371094 68.132812 C 143.148438 69.117188 141.960938 70.140625 140.800781 71.199219 C 140.402344 71.5625 139.996094 71.917969 139.585938 72.269531 C 138.671875 73.046875 137.824219 73.886719 136.980469 74.742188 C 136.398438 75.332031 135.824219 75.90625 135.171875 76.421875 C 134.808594 76.710938 134.484375 77.003906 134.175781 77.351562 C 133.976562 77.582031 133.78125 77.8125 133.582031 78.042969 C 133.054688 78.664062 132.488281 79.242188 131.90625 79.8125 C 131.074219 80.636719 130.277344 81.5 129.515625 82.394531 C 129.285156 82.664062 129.050781 82.933594 128.816406 83.203125 C 127.152344 85.113281 125.546875 87.078125 124.003906 89.089844 L 123.84375 89.300781 C 119.710938 94.683594 116.042969 100.3125 112.710938 106.21875 C 112.546875 106.507812 112.386719 106.792969 112.222656 107.078125 C 108.503906 113.621094 105.53125 120.5625 103.003906 127.644531 C 100.382812 135.070312 98.441406 142.71875 97.144531 150.484375 C 95.648438 159.550781 95 168.644531 95.097656 177.828125 C 95.179688 184.738281 95.828125 191.660156 97.0625 198.460938 C 97.21875 199.339844 97.328125 200.222656 97.429688 201.109375 C 97.03125 200.949219 97.03125 200.949219 96.777344 200.820312 L 96.515625 200.652344 C 96.171875 200.3125 95.878906 199.933594 95.585938 199.550781 C 95.402344 199.320312 95.21875 199.089844 95.035156 198.859375 L 94.890625 198.675781 C 94.464844 198.140625 94.019531 197.628906 93.574219 197.113281 C 89.324219 192.21875 85.714844 186.621094 82.371094 181.082031 C 78.628906 174.828125 75.507812 168.207031 72.90625 161.40625 C 70.347656 154.648438 68.527344 147.621094 67.164062 140.527344 C 66.101562 134.863281 65.441406 128.988281 65.359375 123.222656 L 65.355469 122.8125 C 65.273438 117.816406 65.390625 112.855469 65.820312 107.875 L 65.851562 107.480469 C 66.410156 101.101562 67.632812 94.777344 69.285156 88.589844 C 70.027344 85.828125 70.875 83.101562 71.773438 80.386719 L 71.898438 80.015625 C 74.003906 73.65625 76.855469 67.5 80.023438 61.601562 C 81.042969 59.742188 82.128906 57.917969 83.230469 56.105469 L 83.550781 55.570312 C 84.914062 53.320312 86.375 51.144531 87.886719 48.992188 C 88.035156 48.777344 88.183594 48.566406 88.332031 48.351562 C 90.515625 45.226562 92.882812 42.269531 95.371094 39.382812 L 95.601562 39.113281 C 96.128906 38.503906 96.660156 37.898438 97.195312 37.296875 C 97.710938 36.722656 98.226562 36.148438 98.746094 35.578125 C 98.941406 35.363281 99.136719 35.148438 99.328125 34.933594 C 100.8125 33.289062 102.339844 31.699219 103.902344 30.132812 L 104.164062 29.871094 C 105.660156 28.363281 107.210938 26.945312 108.886719 25.636719 L 109.113281 24.035156 C 109.699219 23.421875 110.265625 22.863281 110.945312 22.355469 C 111.195312 22.171875 111.449219 21.992188 111.707031 21.8125 L 111.914062 21.667969 C 113.160156 20.78125 114.449219 19.964844 115.753906 19.164062 C 116.707031 18.578125 117.644531 17.972656 118.570312 17.34375 C 120.796875 15.839844 123.082031 14.429688 125.378906 13.039062 L 125.703125 12.84375 C 132.152344 8.941406 138.847656 5.515625 145.878906 2.785156 C 147.363281 2.214844 148.851562 1.660156 150.347656 1.125 L 150.671875 1.011719 C 151.207031 0.820312 151.742188 0.632812 152.285156 0.457031 C 152.5 0.382812 152.714844 0.3125 152.929688 0.238281 L 153.3125 0.121094 L 153.625 0.0195312 C 154.011719 -0.0195312 154.011719 -0.0195312 154.3125 0 "/>
<path fill-rule="nonzero" fill="rgb(7.843137%, 72.54902%, 50.588235%)" fill-opacity="1" d="M 6.03125 185.53125 L 6.488281 185.53125 L 6.765625 185.851562 C 7.207031 186.359375 7.648438 186.863281 8.089844 187.367188 L 8.332031 187.640625 C 9.96875 189.5 11.664062 191.308594 13.550781 192.921875 C 14.132812 193.417969 14.695312 193.933594 15.253906 194.453125 C 16.640625 195.738281 18.066406 196.957031 19.546875 198.132812 L 20.078125 198.558594 C 20.960938 199.265625 21.855469 199.964844 22.753906 200.652344 L 22.984375 200.832031 C 28.863281 205.339844 35.175781 209.238281 41.742188 212.664062 C 47.664062 215.738281 53.808594 218.339844 60.09375 220.582031 L 60.5 220.726562 C 67.59375 223.269531 74.902344 225.160156 82.3125 226.539062 L 82.660156 226.601562 C 85.5625 227.148438 88.476562 227.558594 91.40625 227.910156 L 92.101562 227.996094 C 97.871094 228.699219 103.640625 228.917969 109.449219 228.902344 C 109.703125 228.898438 109.960938 228.898438 110.21875 228.898438 C 115.21875 228.894531 120.175781 228.828125 125.144531 228.199219 C 125.636719 228.136719 126.132812 228.078125 126.625 228.027344 C 135.117188 227.074219 143.574219 225.453125 151.777344 223.046875 C 160.613281 220.445312 169.246094 217.171875 180.714844 211.703125 C 184.3125 209.90625 187.820312 207.957031 191.265625 205.882812 C 191.570312 205.699219 191.878906 205.515625 192.183594 205.332031 C 197.015625 202.4375 201.738281 199.300781 206.152344 195.796875 L 206.433594 195.578125 C 206.605469 195.441406 206.773438 195.304688 206.945312 195.167969 C 207.164062 194.996094 207.378906 194.839844 207.617188 194.695312 C 207.925781 194.585938 208.210938 194.523438 208.535156 194.464844 C 208.492188 194.929688 208.414062 195.390625 208.304688 195.839844 C 208.117188 196.28125 207.886719 196.695312 207.648438 197.113281 C 207.4375 197.480469 207.234375 197.851562 207.03125 198.226562 L 206.894531 198.476562 C 206.359375 199.46875 205.882812 200.492188 205.402344 201.515625 C 202.078125 208.5625 198.074219 215.160156 193.582031 221.523438 C 192.167969 223.519531 190.660156 225.429688 189.097656 227.3125 C 188.675781 227.824219 188.261719 228.339844 187.851562 228.863281 C 187.011719 229.933594 186.121094 230.945312 185.203125 231.949219 C 184.753906 232.441406 184.316406 232.945312 183.878906 233.453125 C 183.3125 234.105469 182.71875 234.722656 182.101562 235.328125 C 181.636719 235.785156 181.207031 236.261719 180.785156 236.761719 C 179.199219 238.613281 177.425781 240.355469 175.566406 241.933594 C 175.066406 242.355469 174.589844 242.800781 174.113281 243.246094 C 172.949219 244.324219 171.765625 245.359375 170.527344 246.355469 C 169.992188 246.785156 169.464844 247.21875 168.941406 247.660156 C 163.65625 252.097656 157.859375 256.046875 151.886719 259.5 C 148.910156 261.203125 145.894531 262.835938 142.808594 264.332031 C 142.476562 264.492188 142.140625 264.65625 141.808594 264.824219 C 135.230469 268.078125 128.375 270.578125 121.34375 272.648438 C 114.023438 274.773438 106.496094 276.242188 98.921875 277.09375 C 97.890625 277.203125 96.859375 277.300781 95.828125 277.394531 L 95.4375 277.429688 C 88.003906 278.113281 80.394531 278.171875 72.953125 277.585938 C 67.410156 277.121094 61.890625 276.359375 56.425781 275.332031 L 56.050781 275.261719 C 50.820312 274.265625 45.714844 272.734375 40.621094 271.207031 L 40.386719 271.136719 C 36.710938 270.035156 33.222656 268.628906 29.742188 267.015625 C 29.402344 266.859375 29.058594 266.699219 28.714844 266.542969 C 22.710938 263.796875 16.996094 260.449219 11.558594 256.707031 C 10.9375 256.273438 10.316406 255.839844 9.695312 255.402344 L 9.421875 255.207031 C 7.332031 253.734375 5.257812 252.246094 3.3125 250.578125 C 3.128906 250.425781 2.941406 250.28125 2.746094 250.140625 L 2.441406 249.917969 L 2.164062 249.726562 L 1.90625 249.445312 C 1.761719 249.175781 1.652344 248.902344 1.546875 248.617188 C 1.386719 248.097656 1.296875 247.578125 1.21875 247.042969 L 1.164062 246.675781 C 1.125 246.417969 1.085938 246.15625 1.046875 245.898438 C 0.992188 245.523438 0.933594 245.152344 0.875 244.78125 C 0.0859375 239.585938 -0.0117188 234.34375 0 229.097656 C 0.00390625 228.773438 0.00390625 228.445312 0.00390625 228.117188 C 0.0078125 223.207031 0.132812 218.34375 0.710938 213.464844 C 0.761719 213.011719 0.8125 212.558594 0.859375 212.105469 C 1.574219 205.214844 2.703125 198.367188 4.253906 191.617188 L 4.3125 191.363281 C 4.671875 189.800781 5.042969 188.238281 5.496094 186.699219 L 5.578125 186.414062 C 5.648438 186.195312 5.722656 185.976562 5.800781 185.761719 Z M 6.03125 185.53125 "/>
<path fill-rule="nonzero" fill="rgb(5.098039%, 51.372549%, 34.509804%)" fill-opacity="1" d="M 207.847656 195.066406 C 208.011719 195.371094 208.167969 195.667969 208.304688 195.984375 C 208.375 196.296875 208.425781 196.570312 208.457031 196.886719 L 208.484375 197.152344 C 208.589844 198.453125 208.496094 199.753906 208.40625 201.054688 L 208.375 201.496094 C 207.960938 207.421875 206.964844 213.328125 205.535156 219.09375 C 203.992188 225.25 201.875 231.199219 199.296875 236.996094 C 197.195312 241.660156 194.613281 246.136719 191.746094 250.367188 C 188.917969 254.503906 185.800781 258.421875 182.429688 262.128906 C 182.066406 262.527344 181.714844 262.929688 181.363281 263.339844 C 179.9375 265.003906 178.371094 266.546875 176.699219 267.96875 C 176.367188 268.253906 176.046875 268.542969 175.722656 268.839844 C 172.894531 271.453125 169.78125 273.75 166.613281 275.933594 L 166.386719 276.085938 C 165.28125 276.847656 164.144531 277.542969 162.925781 278.113281 C 159.496094 279.652344 155.816406 280.675781 152.183594 281.601562 C 143.597656 283.769531 134.800781 285.164062 125.972656 285.824219 C 116.527344 286.515625 107.039062 286.4375 93.851562 285.324219 C 89.832031 284.910156 85.855469 284.289062 81.878906 283.578125 C 81.414062 283.496094 80.949219 283.414062 80.484375 283.332031 C 70.324219 281.550781 60.394531 278.65625 49.554688 274.785156 L 49.175781 274.652344 C 46.203125 273.574219 43.265625 272.441406 40.390625 271.121094 L 40.164062 270.207031 L 39.703125 270.207031 L 39.933594 269.746094 L 40.191406 269.824219 C 49.585938 272.644531 58.984375 274.824219 68.734375 275.980469 C 69.515625 276.066406 70.292969 276.148438 71.074219 276.21875 L 71.339844 276.242188 C 72.019531 276.304688 72.699219 276.347656 73.378906 276.390625 L 73.601562 276.402344 C 76.796875 276.601562 79.984375 276.667969 83.1875 276.664062 L 83.539062 276.664062 C 87.652344 276.660156 91.730469 276.558594 95.828125 276.160156 L 96.054688 276.140625 C 103.855469 275.390625 111.628906 274.109375 119.195312 272.039062 C 124.078125 270.679688 128.9375 269.152344 133.625 267.226562 L 134 267.074219 C 139.519531 264.800781 144.851562 262.300781 150.011719 259.308594 C 150.496094 259.027344 150.980469 258.753906 151.46875 258.480469 C 156.6875 255.566406 161.726562 252.191406 166.382812 248.441406 L 166.699219 248.1875 C 168.078125 247.082031 169.425781 245.945312 170.773438 244.796875 C 171.464844 244.207031 172.171875 243.625 172.882812 243.054688 C 173.890625 242.246094 174.828125 241.40625 175.730469 240.476562 C 176.242188 239.953125 176.777344 239.453125 177.335938 238.980469 C 179.046875 237.519531 180.652344 235.886719 182.105469 234.175781 C 182.523438 233.6875 182.960938 233.238281 183.421875 232.792969 C 184.191406 232.046875 184.863281 231.222656 185.535156 230.386719 C 186.058594 229.734375 186.605469 229.101562 187.171875 228.484375 C 188.40625 227.132812 189.480469 225.644531 190.582031 224.1875 C 190.941406 223.710938 191.308594 223.242188 191.679688 222.777344 C 195.203125 218.382812 198.167969 213.453125 200.972656 208.582031 L 201.152344 208.277344 C 203.621094 204 205.710938 199.519531 207.847656 195.066406 "/>
<path fill-rule="nonzero" fill="rgb(5.098039%, 51.372549%, 34.509804%)" fill-opacity="1" d="M 110.34375 22.84375 C 110.359375 23.367188 110.308594 23.859375 110.230469 24.378906 L 110.167969 24.808594 L 110.117188 25.136719 C 109.757812 25.464844 109.402344 25.796875 109.042969 26.125 L 108.679688 26.457031 C 108.105469 26.988281 107.535156 27.515625 106.941406 28.023438 C 105.789062 29.015625 104.699219 30.058594 103.625 31.140625 C 103.34375 31.421875 103.0625 31.703125 102.78125 31.980469 C 101.796875 32.964844 100.851562 33.96875 99.945312 35.023438 C 99.601562 35.417969 99.25 35.804688 98.894531 36.1875 L 98.730469 36.363281 L 98.402344 36.710938 C 97.230469 37.960938 96.109375 39.257812 95.042969 40.597656 C 94.796875 40.90625 94.546875 41.214844 94.292969 41.523438 C 92.589844 43.601562 90.996094 45.746094 89.480469 47.964844 L 89.042969 48.609375 C 85.1875 54.234375 81.789062 60.039062 78.734375 66.140625 L 78.566406 66.472656 C 75.597656 72.386719 73.316406 78.59375 71.402344 84.925781 C 70.828125 86.859375 70.34375 88.8125 69.878906 90.773438 C 69.800781 91.097656 69.722656 91.421875 69.640625 91.746094 C 68.0625 98.082031 67.191406 104.589844 66.730469 111.097656 C 66.648438 112.300781 66.613281 113.5 66.59375 114.703125 L 66.585938 115.125 C 66.457031 122.734375 66.851562 130.308594 68.039062 137.832031 C 68.402344 140.0625 68.851562 142.277344 69.339844 144.484375 L 69.394531 144.726562 C 70.863281 151.304688 72.769531 157.757812 75.347656 163.992188 C 78.273438 171.027344 81.761719 177.816406 85.851562 184.246094 C 88.515625 188.394531 91.378906 192.476562 94.5625 196.242188 C 94.816406 196.542969 95.066406 196.84375 95.316406 197.144531 C 95.515625 197.382812 95.714844 197.621094 95.914062 197.859375 L 95.683594 198.777344 C 95.058594 198.667969 94.449219 198.53125 93.851562 198.316406 C 93.089844 197.96875 92.386719 197.515625 91.675781 197.074219 L 91.070312 196.699219 C 89.28125 195.601562 87.546875 194.433594 85.839844 193.214844 C 85.597656 193.042969 85.355469 192.871094 85.113281 192.703125 C 79.074219 188.429688 73.476562 183.734375 68.265625 178.484375 C 67.441406 177.648438 66.644531 176.796875 65.890625 175.894531 C 65.636719 175.59375 65.375 175.292969 65.117188 174.996094 C 63.511719 173.144531 62.023438 171.214844 60.582031 169.234375 C 60.40625 169 60.234375 168.761719 60.0625 168.527344 C 58.175781 165.957031 56.492188 163.289062 54.910156 160.519531 L 54.730469 160.210938 C 52.03125 155.480469 49.871094 150.605469 48.011719 145.488281 C 46.402344 140.988281 45.285156 136.332031 44.476562 131.625 C 44 128.757812 43.792969 125.875 43.816406 122.96875 C 43.851562 120.902344 44.085938 118.890625 44.476562 116.863281 C 44.589844 116.296875 44.707031 115.730469 44.828125 115.164062 L 44.902344 114.820312 C 46.175781 108.785156 48.09375 102.941406 50.390625 97.226562 C 52.855469 91.113281 55.570312 85.175781 58.804688 79.425781 L 59.117188 78.863281 C 63.289062 71.4375 68.179688 64.378906 73.566406 57.78125 C 74.429688 56.726562 75.3125 55.6875 76.195312 54.648438 C 76.765625 53.976562 77.328125 53.296875 77.875 52.609375 C 78.929688 51.292969 80.0625 50.0625 81.222656 48.839844 L 81.613281 48.425781 L 81.796875 48.234375 C 82.1875 47.816406 82.574219 47.386719 82.945312 46.953125 C 83.851562 45.898438 84.8125 44.90625 85.796875 43.925781 L 86.300781 43.421875 C 86.652344 43.074219 87 42.722656 87.351562 42.375 C 87.792969 41.933594 88.234375 41.492188 88.675781 41.046875 C 89.023438 40.699219 89.367188 40.355469 89.714844 40.007812 C 89.878906 39.847656 90.039062 39.683594 90.203125 39.519531 C 91.175781 38.542969 92.171875 37.609375 93.21875 36.710938 C 93.8125 36.199219 94.382812 35.664062 94.953125 35.128906 C 96.015625 34.144531 97.113281 33.214844 98.242188 32.308594 C 98.828125 31.832031 99.402344 31.347656 99.976562 30.855469 C 101.558594 29.5 103.183594 28.21875 104.847656 26.96875 L 105.121094 26.765625 C 106.394531 25.804688 107.671875 24.847656 108.953125 23.890625 C 109.417969 23.542969 109.882812 23.195312 110.34375 22.84375 "/>
<path fill-rule="nonzero" fill="rgb(5.098039%, 51.372549%, 34.509804%)" fill-opacity="1" d="M 203.347656 91.539062 C 203.761719 91.539062 204.175781 91.539062 204.589844 91.539062 C 208.558594 91.550781 212.460938 91.632812 216.390625 92.242188 C 216.789062 92.300781 217.1875 92.359375 217.585938 92.414062 C 223.28125 93.21875 228.890625 94.53125 234.359375 96.308594 C 235.144531 96.566406 235.921875 96.832031 236.699219 97.109375 L 237.003906 97.214844 C 240.113281 98.324219 243.101562 99.71875 245.972656 101.351562 C 247.019531 101.960938 247.976562 102.660156 248.902344 103.4375 C 249.113281 103.617188 249.320312 103.800781 249.527344 103.980469 L 249.839844 104.253906 C 250.402344 104.75 250.960938 105.253906 251.507812 105.765625 C 251.738281 105.972656 251.96875 106.171875 252.203125 106.375 C 253.476562 107.464844 254.667969 108.632812 255.851562 109.820312 C 256.128906 110.097656 256.40625 110.371094 256.679688 110.648438 C 257.871094 111.832031 259.027344 113.03125 260.117188 114.3125 C 260.347656 114.582031 260.585938 114.851562 260.820312 115.117188 C 262.523438 117.03125 264.121094 119.011719 265.652344 121.0625 C 266.019531 121.546875 266.386719 122.027344 266.761719 122.507812 C 268.199219 124.339844 269.527344 126.226562 270.8125 128.164062 C 270.976562 128.410156 271.140625 128.65625 271.304688 128.902344 C 273.402344 132.058594 275.382812 135.269531 277.246094 138.570312 L 277.449219 138.933594 C 281.246094 145.683594 284.507812 152.664062 287.324219 159.875 L 287.488281 160.292969 C 288.179688 162.070312 288.839844 163.859375 289.472656 165.660156 C 289.570312 165.929688 289.664062 166.203125 289.761719 166.476562 C 292.949219 175.460938 295.457031 184.734375 297.109375 194.421875 C 298.855469 204.828125 298.855469 204.828125 298.820312 209.515625 C 298.8125 210.074219 298.800781 210.632812 298.777344 211.1875 L 298.320312 211.1875 L 298.089844 212.105469 L 298.023438 211.761719 C 296.257812 202.519531 294.046875 193.621094 290.71875 184.808594 C 288.386719 178.679688 285.476562 172.734375 282.15625 167.082031 C 281.851562 166.566406 281.554688 166.046875 281.261719 165.523438 C 278.300781 160.320312 274.816406 155.371094 271.058594 150.714844 L 270.871094 150.480469 C 270.472656 149.984375 270.074219 149.488281 269.667969 148.996094 C 269.542969 148.839844 269.414062 148.683594 269.285156 148.523438 C 267.117188 145.847656 264.695312 143.394531 262.257812 140.964844 C 261.90625 140.613281 261.554688 140.265625 261.207031 139.914062 C 259.859375 138.558594 258.511719 137.214844 257.046875 135.984375 C 256.796875 135.769531 256.542969 135.550781 256.296875 135.332031 C 254.421875 133.679688 252.476562 132.140625 250.480469 130.640625 C 250.019531 130.296875 249.5625 129.949219 249.109375 129.597656 C 243.914062 125.546875 238.164062 122.019531 232.355469 118.925781 C 230.949219 118.183594 229.53125 117.464844 228.109375 116.753906 C 227.785156 116.589844 227.460938 116.429688 227.140625 116.265625 C 221.097656 113.199219 214.582031 110.914062 208.105469 108.941406 C 205.527344 108.164062 202.902344 107.546875 200.273438 106.960938 L 199.851562 106.863281 C 193.105469 105.339844 186.1875 104.40625 179.285156 104 C 178.972656 103.980469 178.660156 103.960938 178.347656 103.941406 C 171.582031 103.523438 164.699219 103.601562 157.957031 104.347656 C 157.082031 104.449219 156.210938 104.554688 155.339844 104.675781 C 154.042969 104.855469 152.792969 104.9375 151.480469 104.898438 L 151.9375 103.980469 C 153.066406 103.402344 154.199219 102.835938 155.339844 102.28125 C 155.589844 102.15625 155.839844 102.03125 156.089844 101.90625 C 160.855469 99.558594 166.007812 97.855469 171.101562 96.371094 C 172.722656 95.902344 174.355469 95.464844 175.992188 95.046875 L 176.390625 94.945312 C 180.417969 93.921875 184.488281 93.175781 188.589844 92.527344 L 188.875 92.480469 C 193.664062 91.71875 198.503906 91.523438 203.347656 91.539062 "/>
</svg>
