<?xml version="1.0" encoding="UTF-8"?>
<svg xmlns="http://www.w3.org/2000/svg" xmlns:xlink="http://www.w3.org/1999/xlink" width="1054" height="286" viewBox="0 0 1054 286">
<path fill-rule="nonzero" fill="#14B981" fill-opacity="1" d="M 203.496094 90.910156 C 203.910156 90.910156 204.328125 90.910156 204.742188 90.910156 C 208.710938 90.921875 212.613281 91.003906 216.542969 91.613281 C 216.9375 91.671875 217.335938 91.730469 217.734375 91.785156 C 223.429688 92.589844 229.039062 93.902344 234.511719 95.679688 C 235.292969 95.9375 236.070312 96.203125 236.847656 96.480469 L 237.152344 96.585938 C 240.261719 97.695312 243.253906 99.089844 246.125 100.722656 C 247.167969 101.332031 248.125 102.03125 249.054688 102.808594 C 249.261719 102.988281 249.46875 103.171875 249.675781 103.351562 L 249.988281 103.625 C 250.554688 104.121094 251.109375 104.625 251.660156 105.136719 C 251.886719 105.34375 252.117188 105.542969 252.351562 105.746094 C 253.628906 106.835938 254.820312 108.003906 256.003906 109.191406 C 256.277344 109.46875 256.554688 109.742188 256.832031 110.019531 C 258.019531 111.203125 259.179688 112.402344 260.265625 113.683594 C 260.5 113.953125 260.734375 114.222656 260.972656 114.488281 C 262.675781 116.402344 264.269531 118.382812 265.804688 120.433594 C 266.167969 120.917969 266.539062 121.398438 266.914062 121.878906 C 268.347656 123.710938 269.679688 125.597656 270.964844 127.535156 C 271.125 127.78125 271.289062 128.027344 271.453125 128.273438 C 273.550781 131.429688 275.53125 134.640625 277.394531 137.941406 L 277.597656 138.304688 C 281.398438 145.054688 284.660156 152.035156 287.472656 159.246094 L 287.636719 159.664062 C 288.328125 161.441406 288.988281 163.230469 289.625 165.03125 C 289.71875 165.300781 289.816406 165.574219 289.910156 165.847656 C 293.097656 174.832031 295.605469 184.105469 297.257812 193.792969 C 299.003906 204.199219 299.003906 204.199219 298.972656 208.886719 C 298.964844 209.445312 298.949219 210.003906 298.929688 210.558594 L 298.46875 210.558594 L 298.503906 210.828125 C 298.609375 211.675781 298.710938 212.527344 298.816406 213.375 C 298.871094 213.8125 298.921875 214.246094 298.976562 214.683594 C 299.101562 215.683594 299.222656 216.683594 299.335938 217.683594 C 299.367188 217.945312 299.398438 218.210938 299.429688 218.472656 C 299.730469 221.070312 299.671875 223.699219 299.671875 226.308594 L 299.671875 226.691406 C 299.675781 230.929688 299.503906 235.074219 298.972656 239.28125 C 298.917969 239.75 298.863281 240.21875 298.8125 240.6875 C 298.527344 243.296875 298.089844 245.875 297.597656 248.449219 C 297.554688 248.683594 297.511719 248.917969 297.464844 249.152344 C 296.960938 251.835938 296.960938 251.835938 296.574219 252.90625 C 296.449219 253.226562 296.320312 253.542969 296.179688 253.855469 C 294.644531 255.125 293.011719 256.1875 291.304688 257.210938 C 291.09375 257.335938 290.882812 257.464844 290.671875 257.59375 C 288.246094 259.054688 285.792969 260.449219 283.292969 261.769531 C 282.867188 261.996094 282.441406 262.222656 282.015625 262.453125 C 272.929688 267.378906 263.191406 271.136719 253.402344 274.417969 C 250.433594 275.410156 247.433594 276.289062 244.40625 277.09375 L 244.101562 277.175781 C 243.441406 277.351562 242.78125 277.523438 242.117188 277.695312 L 241.867188 277.757812 C 240.808594 278.03125 239.765625 278.238281 238.679688 278.367188 C 239.03125 277.171875 239.394531 275.976562 239.789062 274.792969 C 241.800781 268.699219 243.230469 262.488281 244.15625 256.140625 C 244.265625 255.386719 244.367188 254.636719 244.464844 253.882812 L 244.519531 253.484375 C 244.652344 252.464844 244.765625 251.441406 244.867188 250.417969 L 244.894531 250.121094 C 245.300781 246 245.398438 241.890625 245.382812 237.753906 C 245.382812 237.195312 245.382812 236.632812 245.382812 236.074219 C 245.402344 230.535156 245.171875 225.035156 244.398438 219.542969 L 244.292969 218.765625 C 243.15625 210.570312 241.378906 202.582031 238.839844 194.703125 C 237.570312 190.777344 236.148438 186.953125 234.476562 183.175781 C 234.292969 182.757812 234.109375 182.339844 233.929688 181.917969 C 231.671875 176.695312 229.039062 171.664062 226.082031 166.804688 L 225.898438 166.503906 C 224.289062 163.867188 222.582031 161.3125 220.765625 158.8125 C 220.578125 158.550781 220.390625 158.292969 220.203125 158.03125 C 218.351562 155.457031 216.402344 152.957031 214.355469 150.535156 C 214.125 150.257812 213.890625 149.984375 213.660156 149.707031 C 212.460938 148.277344 211.222656 146.875 209.949219 145.511719 L 209.746094 145.289062 C 208.242188 143.683594 206.695312 142.117188 205.136719 140.5625 C 204.761719 140.1875 204.386719 139.8125 204.011719 139.4375 C 201.140625 136.558594 201.140625 136.558594 199.699219 135.351562 C 199.441406 135.140625 199.191406 134.921875 198.941406 134.703125 C 195.523438 131.722656 191.96875 128.90625 188.285156 126.261719 L 188 126.054688 C 182.132812 121.84375 175.960938 118.144531 169.589844 114.746094 C 169.269531 114.574219 168.945312 114.402344 168.625 114.230469 C 164.078125 111.792969 159.429688 109.660156 154.652344 107.71875 L 154.414062 107.621094 C 152.507812 106.847656 150.59375 106.101562 148.652344 105.414062 L 148.652344 104.957031 C 149.890625 104.441406 149.890625 104.441406 150.484375 104.269531 C 150.863281 104.222656 150.863281 104.222656 151.171875 104.226562 C 151.324219 104.238281 151.476562 104.253906 151.632812 104.269531 L 152.089844 103.351562 C 153.21875 102.773438 154.351562 102.207031 155.488281 101.648438 C 155.738281 101.527344 155.992188 101.402344 156.242188 101.277344 C 161.007812 98.929688 166.15625 97.226562 171.25 95.742188 C 172.875 95.273438 174.507812 94.835938 176.140625 94.417969 L 176.539062 94.316406 C 180.570312 93.292969 184.636719 92.546875 188.742188 91.898438 L 189.027344 91.851562 C 193.816406 91.089844 198.65625 90.894531 203.496094 90.910156 "/>
<path fill-rule="nonzero" fill="#14B981" fill-opacity="1" d="M 154.636719 -0.128906 C 155 -0.078125 155.359375 -0.0117188 155.710938 0.0820312 C 156.203125 0.265625 156.664062 0.492188 157.132812 0.726562 L 157.539062 0.925781 C 157.898438 1.105469 158.261719 1.289062 158.621094 1.472656 C 158.847656 1.585938 159.078125 1.699219 159.304688 1.8125 C 162.4375 3.390625 165.449219 5.136719 168.4375 6.976562 C 168.75 7.171875 169.0625 7.363281 169.378906 7.554688 C 173.816406 10.277344 178.09375 13.257812 182.285156 16.347656 L 182.519531 16.519531 C 185.84375 18.972656 189.125 21.488281 192.304688 24.125 C 192.609375 24.375 192.917969 24.625 193.226562 24.875 C 194.570312 25.960938 195.867188 27.085938 197.144531 28.25 C 197.53125 28.601562 197.925781 28.945312 198.320312 29.289062 C 200.050781 30.796875 201.742188 32.34375 203.417969 33.914062 L 203.652344 34.132812 C 204.644531 35.058594 205.617188 35.996094 206.566406 36.960938 L 206.566406 37.648438 L 206.257812 37.726562 C 197.457031 39.863281 188.886719 42.351562 180.5625 45.964844 C 172.375 49.554688 164.445312 53.757812 156.996094 58.707031 C 155.554688 59.675781 154.136719 60.683594 152.734375 61.703125 L 152.484375 61.882812 C 150.273438 63.492188 148.136719 65.179688 146.027344 66.917969 C 145.585938 67.28125 145.140625 67.644531 144.695312 68.003906 C 143.472656 68.988281 142.285156 70.011719 141.125 71.070312 C 140.726562 71.433594 140.320312 71.789062 139.910156 72.140625 C 138.996094 72.921875 138.148438 73.757812 137.304688 74.613281 C 136.722656 75.203125 136.148438 75.777344 135.496094 76.292969 C 135.132812 76.582031 134.808594 76.878906 134.5 77.222656 C 134.300781 77.453125 134.105469 77.683594 133.90625 77.917969 C 133.375 78.539062 132.8125 79.113281 132.230469 79.6875 C 131.398438 80.511719 130.597656 81.371094 129.839844 82.265625 C 129.609375 82.535156 129.375 82.804688 129.140625 83.074219 C 127.476562 84.984375 125.871094 86.949219 124.328125 88.964844 L 124.167969 89.175781 C 120.035156 94.554688 116.367188 100.1875 113.035156 106.089844 C 112.871094 106.378906 112.710938 106.664062 112.546875 106.949219 C 108.828125 113.492188 105.851562 120.433594 103.328125 127.515625 C 100.707031 134.941406 98.765625 142.589844 97.46875 150.355469 C 95.96875 159.421875 95.324219 168.515625 95.421875 177.699219 C 95.503906 184.609375 96.152344 191.535156 97.386719 198.335938 C 97.542969 199.214844 97.652344 200.097656 97.753906 200.980469 C 97.355469 200.820312 97.355469 200.820312 97.101562 200.695312 L 96.839844 200.523438 C 96.496094 200.183594 96.203125 199.804688 95.910156 199.421875 C 95.726562 199.191406 95.542969 198.960938 95.359375 198.730469 L 95.214844 198.546875 C 94.789062 198.015625 94.34375 197.5 93.894531 196.984375 C 89.644531 192.089844 86.039062 186.496094 82.695312 180.953125 C 78.953125 174.703125 75.832031 168.078125 73.226562 161.28125 C 70.671875 154.519531 68.851562 147.492188 67.488281 140.398438 C 66.425781 134.738281 65.765625 128.859375 65.683594 123.097656 L 65.675781 122.683594 C 65.59375 117.6875 65.714844 112.726562 66.144531 107.746094 L 66.175781 107.355469 C 66.734375 100.972656 67.957031 94.648438 69.609375 88.460938 C 70.351562 85.699219 71.199219 82.972656 72.097656 80.257812 L 72.222656 79.886719 C 74.328125 73.527344 77.179688 67.371094 80.34375 61.472656 C 81.363281 59.613281 82.449219 57.789062 83.550781 55.976562 L 83.875 55.445312 C 85.238281 53.191406 86.699219 51.015625 88.210938 48.863281 C 88.359375 48.652344 88.507812 48.4375 88.65625 48.226562 C 90.839844 45.101562 93.207031 42.140625 95.695312 39.253906 L 95.925781 38.984375 C 96.453125 38.375 96.984375 37.769531 97.519531 37.171875 C 98.035156 36.59375 98.550781 36.019531 99.070312 35.449219 C 99.265625 35.234375 99.457031 35.019531 99.652344 34.804688 C 101.132812 33.160156 102.664062 31.570312 104.226562 30.003906 L 104.488281 29.742188 C 105.984375 28.238281 107.535156 26.816406 109.210938 25.507812 L 109.4375 23.90625 C 110.023438 23.292969 110.589844 22.734375 111.269531 22.226562 C 111.519531 22.046875 111.773438 21.867188 112.03125 21.6875 L 112.238281 21.539062 C 113.484375 20.65625 114.773438 19.839844 116.074219 19.035156 C 117.027344 18.449219 117.96875 17.84375 118.894531 17.214844 C 121.121094 15.710938 123.402344 14.300781 125.703125 12.910156 L 126.023438 12.714844 C 132.476562 8.816406 139.171875 5.386719 146.203125 2.65625 C 147.683594 2.085938 149.175781 1.53125 150.671875 0.996094 L 150.996094 0.882812 C 151.53125 0.691406 152.066406 0.503906 152.609375 0.328125 C 152.824219 0.257812 153.039062 0.183594 153.25 0.109375 L 153.636719 -0.0078125 L 153.949219 -0.109375 C 154.335938 -0.148438 154.335938 -0.148438 154.636719 -0.128906 "/>
<path fill-rule="nonzero" fill="#14B981" fill-opacity="1" d="M 6.355469 185.40625 L 6.8125 185.40625 L 7.089844 185.726562 C 7.53125 186.230469 7.972656 186.734375 8.414062 187.238281 L 8.65625 187.511719 C 10.292969 189.371094 11.988281 191.179688 13.875 192.792969 C 14.457031 193.289062 15.019531 193.804688 15.578125 194.328125 C 16.964844 195.613281 18.390625 196.828125 19.867188 198.003906 L 20.402344 198.429688 C 21.285156 199.136719 22.175781 199.835938 23.074219 200.523438 L 23.308594 200.703125 C 29.1875 205.210938 35.5 209.113281 42.066406 212.535156 C 47.988281 215.609375 54.132812 218.210938 60.414062 220.453125 L 60.824219 220.597656 C 67.917969 223.144531 75.226562 225.03125 82.636719 226.410156 L 82.984375 226.476562 C 85.886719 227.023438 88.800781 227.429688 91.730469 227.785156 L 92.425781 227.867188 C 98.195312 228.574219 103.964844 228.789062 109.769531 228.773438 C 110.027344 228.773438 110.285156 228.769531 110.542969 228.769531 C 115.542969 228.765625 120.5 228.699219 125.46875 228.070312 C 125.960938 228.007812 126.457031 227.953125 126.949219 227.898438 C 135.441406 226.945312 143.898438 225.324219 152.101562 222.921875 C 160.9375 220.316406 169.570312 217.046875 181.039062 211.574219 C 184.636719 209.777344 188.144531 207.828125 191.589844 205.753906 C 191.894531 205.570312 192.203125 205.386719 192.507812 205.203125 C 197.339844 202.308594 202.0625 199.171875 206.476562 195.671875 L 206.757812 195.449219 C 206.929688 195.3125 207.097656 195.179688 207.269531 195.042969 C 207.488281 194.867188 207.699219 194.710938 207.941406 194.566406 C 208.25 194.460938 208.535156 194.398438 208.859375 194.339844 C 208.816406 194.800781 208.738281 195.261719 208.628906 195.714844 C 208.441406 196.15625 208.210938 196.566406 207.972656 196.984375 C 207.761719 197.351562 207.554688 197.726562 207.355469 198.101562 L 207.21875 198.347656 C 206.683594 199.34375 206.207031 200.363281 205.726562 201.386719 C 202.402344 208.433594 198.398438 215.03125 193.90625 221.394531 C 192.492188 223.390625 190.984375 225.300781 189.421875 227.183594 C 189 227.695312 188.582031 228.214844 188.175781 228.734375 C 187.335938 229.804688 186.445312 230.816406 185.527344 231.820312 C 185.078125 232.316406 184.640625 232.816406 184.203125 233.324219 C 183.636719 233.980469 183.042969 234.59375 182.425781 235.199219 C 181.960938 235.65625 181.53125 236.136719 181.109375 236.632812 C 179.523438 238.484375 177.746094 240.226562 175.886719 241.804688 C 175.390625 242.226562 174.914062 242.671875 174.433594 243.117188 C 173.273438 244.199219 172.085938 245.230469 170.851562 246.226562 C 170.316406 246.65625 169.789062 247.09375 169.265625 247.535156 C 163.980469 251.96875 158.183594 255.917969 152.207031 259.371094 C 149.234375 261.078125 146.21875 262.707031 143.132812 264.203125 C 142.796875 264.367188 142.464844 264.53125 142.128906 264.695312 C 135.554688 267.949219 128.699219 270.449219 121.667969 272.519531 C 114.34375 274.644531 106.816406 276.113281 99.246094 276.964844 C 98.214844 277.074219 97.183594 277.171875 96.152344 277.265625 L 95.761719 277.300781 C 88.328125 277.984375 80.714844 278.042969 73.273438 277.457031 C 67.734375 276.992188 62.214844 276.230469 56.75 275.203125 L 56.375 275.132812 C 51.144531 274.136719 46.035156 272.609375 40.945312 271.078125 L 40.707031 271.007812 C 37.035156 269.90625 33.546875 268.5 30.066406 266.886719 C 29.726562 266.730469 29.382812 266.574219 29.039062 266.417969 C 23.035156 263.667969 17.320312 260.320312 11.882812 256.578125 C 11.257812 256.144531 10.636719 255.710938 10.019531 255.273438 L 9.746094 255.082031 C 7.652344 253.605469 5.582031 252.117188 3.636719 250.449219 C 3.453125 250.296875 3.265625 250.152344 3.070312 250.015625 L 2.765625 249.789062 L 2.488281 249.597656 L 2.230469 249.316406 C 2.085938 249.046875 1.976562 248.777344 1.871094 248.488281 C 1.710938 247.96875 1.621094 247.453125 1.542969 246.917969 L 1.488281 246.546875 C 1.449219 246.289062 1.410156 246.03125 1.371094 245.769531 C 1.316406 245.398438 1.257812 245.023438 1.199219 244.652344 C 0.410156 239.457031 0.3125 234.214844 0.324219 228.972656 C 0.324219 228.644531 0.328125 228.316406 0.328125 227.988281 C 0.332031 223.078125 0.453125 218.21875 1.035156 213.339844 C 1.085938 212.886719 1.132812 212.433594 1.179688 211.976562 C 1.898438 205.089844 3.027344 198.238281 4.578125 191.488281 L 4.636719 191.234375 C 4.996094 189.671875 5.363281 188.109375 5.820312 186.570312 L 5.902344 186.285156 C 5.972656 186.066406 6.046875 185.851562 6.125 185.632812 Z M 6.355469 185.40625 "/>
<path fill-rule="nonzero" fill="#0D8358" fill-opacity="1" d="M 208.171875 194.941406 C 208.335938 195.246094 208.492188 195.539062 208.628906 195.855469 C 208.699219 196.167969 208.75 196.441406 208.78125 196.757812 L 208.804688 197.023438 C 208.914062 198.324219 208.816406 199.625 208.730469 200.925781 L 208.699219 201.367188 C 208.285156 207.292969 207.289062 213.203125 205.859375 218.96875 C 204.316406 225.125 202.199219 231.070312 199.621094 236.867188 C 197.519531 241.53125 194.9375 246.007812 192.070312 250.238281 C 189.242188 254.378906 186.125 258.292969 182.753906 262 C 182.390625 262.398438 182.035156 262.800781 181.6875 263.210938 C 180.257812 264.878906 178.695312 266.417969 177.023438 267.839844 C 176.691406 268.125 176.367188 268.417969 176.046875 268.710938 C 173.21875 271.324219 170.105469 273.625 166.9375 275.804688 L 166.710938 275.960938 C 165.601562 276.71875 164.46875 277.414062 163.25 277.984375 C 159.820312 279.527344 156.140625 280.546875 152.503906 281.472656 C 143.921875 283.644531 135.125 285.035156 126.296875 285.695312 C 116.851562 286.386719 107.363281 286.3125 94.171875 285.195312 C 90.15625 284.785156 86.175781 284.160156 82.203125 283.449219 C 81.738281 283.367188 81.273438 283.285156 80.808594 283.203125 C 70.648438 281.425781 60.71875 278.527344 49.878906 274.660156 L 49.5 274.523438 C 46.527344 273.449219 43.589844 272.3125 40.714844 270.992188 L 40.484375 270.078125 L 40.027344 270.078125 L 40.257812 269.621094 L 40.515625 269.695312 C 49.910156 272.515625 59.308594 274.695312 69.058594 275.851562 C 69.835938 275.941406 70.617188 276.019531 71.398438 276.089844 L 71.660156 276.117188 C 72.339844 276.175781 73.019531 276.222656 73.703125 276.261719 L 73.925781 276.277344 C 77.121094 276.472656 80.308594 276.539062 83.507812 276.535156 L 83.863281 276.535156 C 87.976562 276.53125 92.054688 276.429688 96.152344 276.035156 L 96.378906 276.011719 C 104.179688 275.265625 111.953125 273.980469 119.515625 271.910156 C 124.398438 270.550781 129.257812 269.027344 133.949219 267.097656 L 134.324219 266.945312 C 139.84375 264.675781 145.171875 262.175781 150.335938 259.179688 C 150.820312 258.898438 151.304688 258.625 151.792969 258.351562 C 157.011719 255.441406 162.050781 252.0625 166.707031 248.316406 L 167.023438 248.0625 C 168.402344 246.953125 169.75 245.816406 171.09375 244.671875 C 171.789062 244.078125 172.492188 243.5 173.207031 242.929688 C 174.214844 242.117188 175.152344 241.277344 176.054688 240.347656 C 176.566406 239.824219 177.101562 239.324219 177.660156 238.851562 C 179.371094 237.394531 180.976562 235.761719 182.429688 234.046875 C 182.84375 233.558594 183.285156 233.109375 183.746094 232.667969 C 184.515625 231.917969 185.1875 231.097656 185.859375 230.257812 C 186.382812 229.605469 186.929688 228.972656 187.496094 228.355469 C 188.730469 227.003906 189.804688 225.519531 190.90625 224.058594 C 191.265625 223.582031 191.628906 223.113281 192.003906 222.648438 C 195.527344 218.253906 198.492188 213.324219 201.296875 208.457031 L 201.476562 208.148438 C 203.945312 203.871094 206.035156 199.390625 208.171875 194.941406 "/>
<path fill-rule="nonzero" fill="#0D8358" fill-opacity="1" d="M 110.667969 22.71875 C 110.683594 23.238281 110.632812 23.730469 110.554688 24.25 L 110.492188 24.679688 L 110.441406 25.007812 C 110.082031 25.335938 109.726562 25.667969 109.367188 25.996094 L 109.003906 26.332031 C 108.429688 26.859375 107.859375 27.386719 107.265625 27.894531 C 106.113281 28.886719 105.023438 29.933594 103.949219 31.011719 C 103.667969 31.292969 103.386719 31.574219 103.105469 31.855469 C 102.121094 32.835938 101.175781 33.839844 100.269531 34.894531 C 99.925781 35.289062 99.574219 35.679688 99.21875 36.058594 L 99.054688 36.234375 L 98.726562 36.582031 C 97.554688 37.832031 96.433594 39.128906 95.367188 40.46875 C 95.121094 40.777344 94.871094 41.085938 94.617188 41.394531 C 92.914062 43.472656 91.320312 45.617188 89.804688 47.835938 L 89.363281 48.480469 C 85.511719 54.105469 82.113281 59.910156 79.058594 66.011719 L 78.890625 66.34375 C 75.921875 72.257812 73.640625 78.46875 71.726562 84.796875 C 71.152344 86.730469 70.667969 88.683594 70.203125 90.644531 C 70.125 90.972656 70.046875 91.296875 69.964844 91.617188 C 68.386719 97.953125 67.515625 104.464844 67.050781 110.96875 C 66.972656 112.171875 66.9375 113.375 66.914062 114.578125 L 66.90625 114.996094 C 66.78125 122.605469 67.171875 130.179688 68.359375 137.703125 C 68.726562 139.9375 69.171875 142.148438 69.664062 144.355469 L 69.71875 144.597656 C 71.183594 151.175781 73.09375 157.628906 75.671875 163.863281 C 78.597656 170.902344 82.082031 177.6875 86.175781 184.117188 C 88.839844 188.265625 91.703125 192.347656 94.886719 196.113281 C 95.140625 196.414062 95.390625 196.714844 95.640625 197.015625 C 95.839844 197.253906 96.039062 197.492188 96.238281 197.730469 L 96.007812 198.648438 C 95.382812 198.539062 94.773438 198.402344 94.175781 198.191406 C 93.414062 197.839844 92.707031 197.386719 92 196.945312 L 91.390625 196.574219 C 89.605469 195.472656 87.871094 194.304688 86.164062 193.089844 C 85.921875 192.917969 85.679688 192.746094 85.4375 192.574219 C 79.398438 188.300781 73.800781 183.609375 68.589844 178.355469 C 67.765625 177.523438 66.96875 176.667969 66.214844 175.769531 C 65.960938 175.464844 65.699219 175.167969 65.441406 174.867188 C 63.835938 173.015625 62.347656 171.085938 60.902344 169.105469 C 60.730469 168.871094 60.558594 168.632812 60.386719 168.398438 C 58.5 165.828125 56.816406 163.160156 55.234375 160.390625 L 55.054688 160.082031 C 52.355469 155.355469 50.195312 150.476562 48.335938 145.359375 C 46.726562 140.859375 45.609375 136.203125 44.796875 131.496094 C 44.324219 128.628906 44.117188 125.746094 44.140625 122.839844 C 44.175781 120.773438 44.40625 118.761719 44.796875 116.734375 C 44.910156 116.167969 45.03125 115.601562 45.152344 115.035156 L 45.226562 114.691406 C 46.5 108.65625 48.414062 102.8125 50.714844 97.097656 C 53.179688 90.984375 55.894531 85.046875 59.128906 79.300781 L 59.441406 78.734375 C 63.613281 71.308594 68.503906 64.25 73.886719 57.652344 C 74.753906 56.597656 75.636719 55.558594 76.519531 54.519531 C 77.089844 53.851562 77.648438 53.171875 78.199219 52.484375 C 79.253906 51.167969 80.386719 49.933594 81.546875 48.710938 L 81.9375 48.300781 L 82.121094 48.105469 C 82.511719 47.6875 82.894531 47.261719 83.269531 46.824219 C 84.175781 45.769531 85.136719 44.78125 86.121094 43.796875 L 86.625 43.292969 C 86.972656 42.945312 87.324219 42.597656 87.671875 42.246094 C 88.117188 41.804688 88.558594 41.363281 89 40.917969 C 89.347656 40.574219 89.691406 40.226562 90.039062 39.882812 C 90.203125 39.71875 90.363281 39.554688 90.527344 39.390625 C 91.5 38.417969 92.496094 37.480469 93.542969 36.582031 C 94.136719 36.070312 94.707031 35.535156 95.277344 35 C 96.339844 34.019531 97.4375 33.089844 98.566406 32.179688 C 99.152344 31.707031 99.726562 31.21875 100.300781 30.726562 C 101.878906 29.375 103.507812 28.089844 105.171875 26.839844 L 105.445312 26.636719 C 106.71875 25.675781 107.996094 24.71875 109.277344 23.761719 C 109.742188 23.414062 110.207031 23.066406 110.667969 22.71875 "/>
<path fill-rule="nonzero" fill="#0D8358" fill-opacity="1" d="M 203.671875 91.410156 C 204.085938 91.410156 204.5 91.414062 204.914062 91.414062 C 208.882812 91.421875 212.785156 91.507812 216.714844 92.113281 C 217.113281 92.171875 217.511719 92.230469 217.90625 92.285156 C 223.605469 93.089844 229.210938 94.402344 234.683594 96.179688 C 235.464844 96.4375 236.246094 96.707031 237.019531 96.980469 L 237.328125 97.089844 C 240.4375 98.195312 243.425781 99.59375 246.296875 101.222656 C 247.34375 101.832031 248.300781 102.535156 249.226562 103.308594 C 249.4375 103.488281 249.644531 103.671875 249.851562 103.851562 L 250.164062 104.125 C 250.726562 104.621094 251.285156 105.125 251.832031 105.636719 C 252.0625 105.84375 252.292969 106.046875 252.527344 106.246094 C 253.800781 107.335938 254.992188 108.503906 256.175781 109.691406 C 256.453125 109.96875 256.726562 110.246094 257.003906 110.519531 C 258.195312 111.703125 259.351562 112.90625 260.441406 114.183594 C 260.671875 114.453125 260.90625 114.722656 261.144531 114.988281 C 262.847656 116.902344 264.441406 118.882812 265.976562 120.933594 C 266.34375 121.417969 266.710938 121.902344 267.085938 122.378906 C 268.523438 124.210938 269.851562 126.097656 271.136719 128.039062 C 271.300781 128.285156 271.464844 128.527344 271.628906 128.773438 C 273.722656 131.929688 275.707031 135.140625 277.566406 138.445312 L 277.773438 138.804688 C 281.570312 145.554688 284.832031 152.539062 287.648438 159.75 L 287.8125 160.167969 C 288.503906 161.945312 289.164062 163.730469 289.796875 165.53125 C 289.894531 165.804688 289.988281 166.074219 290.085938 166.347656 C 293.273438 175.332031 295.78125 184.609375 297.433594 194.292969 C 299.179688 204.699219 299.179688 204.699219 299.144531 209.386719 C 299.136719 209.945312 299.125 210.503906 299.101562 211.0625 L 298.644531 211.0625 L 298.414062 211.976562 L 298.347656 211.632812 C 296.582031 202.390625 294.371094 193.496094 291.042969 184.679688 C 288.707031 178.550781 285.800781 172.609375 282.480469 166.953125 C 282.175781 166.4375 281.878906 165.917969 281.585938 165.394531 C 278.625 160.191406 275.140625 155.242188 271.382812 150.585938 L 271.195312 150.351562 C 270.796875 149.855469 270.394531 149.363281 269.992188 148.867188 C 269.867188 148.710938 269.738281 148.554688 269.609375 148.394531 C 267.441406 145.71875 265.019531 143.265625 262.582031 140.835938 C 262.230469 140.484375 261.878906 140.136719 261.53125 139.785156 C 260.179688 138.433594 258.835938 137.085938 257.371094 135.855469 C 257.117188 135.640625 256.867188 135.421875 256.621094 135.203125 C 254.746094 133.550781 252.800781 132.011719 250.804688 130.515625 C 250.34375 130.171875 249.886719 129.820312 249.433594 129.46875 C 244.234375 125.417969 238.488281 121.890625 232.675781 118.796875 C 231.273438 118.054688 229.855469 117.335938 228.433594 116.625 C 228.109375 116.464844 227.785156 116.300781 227.464844 116.136719 C 221.421875 113.070312 214.90625 110.785156 208.429688 108.8125 C 205.851562 108.035156 203.226562 107.417969 200.597656 106.832031 L 200.171875 106.734375 C 193.429688 105.210938 186.511719 104.277344 179.609375 103.871094 C 179.296875 103.851562 178.984375 103.835938 178.667969 103.8125 C 171.90625 103.394531 165.023438 103.472656 158.277344 104.21875 C 157.40625 104.320312 156.535156 104.425781 155.664062 104.546875 C 154.367188 104.726562 153.113281 104.808594 151.804688 104.769531 L 152.261719 103.851562 C 153.390625 103.273438 154.523438 102.707031 155.664062 102.152344 C 155.914062 102.027344 156.164062 101.902344 156.414062 101.78125 C 161.179688 99.429688 166.332031 97.726562 171.425781 96.242188 C 173.046875 95.773438 174.679688 95.335938 176.316406 94.917969 L 176.714844 94.816406 C 180.742188 93.792969 184.8125 93.046875 188.914062 92.398438 L 189.199219 92.355469 C 193.988281 91.589844 198.828125 91.394531 203.671875 91.410156 "/>
<path fill-rule="nonzero" fill="rgb(100%, 100%, 100%)" fill-opacity="1" d="M 368.40625 179.8125 L 402.738281 179.8125 C 428.039062 179.8125 441.0625 164.347656 441.0625 138.796875 C 441.0625 113.246094 428.039062 97.78125 402.738281 97.78125 L 368.40625 97.78125 Z M 388.078125 163.867188 L 388.078125 113.726562 L 399.796875 113.726562 C 414.339844 113.726562 420.890625 121.929688 420.890625 138.683594 C 420.890625 155.664062 414.339844 163.867188 399.796875 163.867188 Z M 471.878906 179.8125 L 491.570312 179.8125 L 491.570312 97.78125 L 471.878906 97.78125 Z M 524.730469 179.8125 L 550.972656 179.8125 C 571.492188 179.8125 583.09375 171.378906 583.09375 154.972656 C 583.09375 140.085938 577.121094 133.167969 557.429688 128.25 C 546.054688 125.445312 542.539062 123.21875 542.539062 118.875 C 542.539062 115.820312 543.59375 113.609375 549.933594 113.609375 L 577.121094 113.609375 L 577.121094 97.78125 L 548.878906 97.78125 C 532.105469 97.78125 522.386719 107.039062 522.386719 121.21875 C 522.386719 134.707031 532.105469 143.371094 547.707031 147.230469 C 561.886719 150.746094 562.941406 151.917969 562.941406 157.085938 C 562.941406 161.523438 559.175781 164.003906 548.050781 164.003906 L 524.730469 164.003906 Z M 613.910156 179.8125 L 633.601562 179.8125 L 633.601562 150.863281 L 653.0625 150.863281 C 676.019531 150.863281 682.9375 133.996094 682.9375 123.21875 C 682.9375 108.210938 673.675781 97.78125 653.179688 97.78125 L 613.910156 97.78125 Z M 633.601562 134.9375 L 633.601562 113.726562 L 651.296875 113.726562 C 658.558594 113.726562 662.785156 117.820312 662.785156 124.390625 C 662.785156 130.941406 658.558594 134.9375 651.296875 134.9375 Z M 697.113281 179.8125 L 717.5 179.8125 L 723.722656 163.175781 L 751.617188 163.175781 L 757.824219 179.8125 L 778.207031 179.8125 L 747.046875 97.78125 L 728.296875 97.78125 Z M 728.988281 147.230469 L 737.671875 123.332031 L 746.335938 147.230469 Z M 819.339844 179.8125 L 839.03125 179.8125 L 839.03125 116.070312 L 861.296875 116.070312 L 861.296875 97.78125 L 797.074219 97.78125 L 797.074219 116.070312 L 819.339844 116.070312 Z M 930.917969 179.8125 L 950.59375 179.8125 L 950.59375 163.867188 L 934.183594 163.867188 C 916.722656 163.867188 907.828125 155.203125 907.828125 138.683594 C 907.828125 122.390625 916.03125 113.726562 931.609375 113.726562 L 948.960938 113.726562 L 948.960938 97.78125 L 928.804688 97.78125 C 901.507812 97.78125 887.675781 112.304688 887.675781 138.796875 C 887.675781 165.289062 901.507812 179.8125 930.917969 179.8125 Z M 1033.683594 179.8125 L 1053.375 179.8125 L 1053.375 97.78125 L 1033.683594 97.78125 L 1033.683594 130.25 L 1001.097656 130.25 L 1001.097656 97.78125 L 981.425781 97.78125 L 981.425781 179.8125 L 1001.097656 179.8125 L 1001.097656 148.519531 L 1033.683594 148.519531 Z M 1033.683594 179.8125 "/>
</svg>
