<?xml version="1.0" encoding="UTF-8" standalone="no" ?>
<!DOCTYPE svg PUBLIC "-//W3C//DTD SVG 1.1//EN" "http://www.w3.org/Graphics/SVG/1.1/DTD/svg11.dtd">
<svg xmlns="http://www.w3.org/2000/svg" xmlns:xlink="http://www.w3.org/1999/xlink" version="1.1" width="1280" height="1024" viewBox="0 0 1280 1024" xml:space="preserve">
<desc>Created with Fabric.js 5.3.0</desc>
<defs>
</defs>
<g transform="matrix(1 0 0 1 640 512)" id="background-logo"  >
<rect style="stroke: none; stroke-width: 0; stroke-dasharray: none; stroke-linecap: butt; stroke-dashoffset: 0; stroke-linejoin: miter; stroke-miterlimit: 4; fill: rgb(0,0,0); fill-rule: nonzero; opacity: 1;"  paint-order="stroke"  x="-640" y="-512" rx="0" ry="0" width="1280" height="1024" />
</g>
<g transform="matrix(1.6403598910412174 0 0 1.6403598910412174 260.90678277873525 511.63578814795176)" id="logo-logo"  >
<g style=""  paint-order="stroke"   >
		<g transform="matrix(0.13965044216062572 0 0 0.1396504421606257 45.21237107259202 25.38333260033265)"  >
<path style="stroke: none; stroke-width: 1; stroke-dasharray: none; stroke-linecap: butt; stroke-dashoffset: 0; stroke-linejoin: miter; stroke-miterlimit: 4; fill: rgb(20,185,129); fill-rule: nonzero; opacity: 1;"  paint-order="stroke"  transform=" translate(-1347.6328673946637, -1169.839200841068)" d="M 1257.412 760.682 Q 1260.127 760.69 1262.8410000000001 760.692 C 1280.1640000000002 760.729 1297.2040000000002 761.102 1314.355 763.75 C 1316.088 764.013 1317.824 764.26 1319.561 764.504 C 1344.427 768.019 1368.9109999999998 773.742 1392.799 781.503 C 1396.2114213994096 782.6321165036393 1399.611617496213 783.7978504007492 1402.9989999999998 785 L 1404.333 785.47 C 1417.911 790.308 1430.958 796.399 1443.4930000000002 803.517 C 1448.0580000000002 806.173 1452.2330000000002 809.239 1456.2820000000002 812.625 Q 1457.6460000000002 813.807 1459.0000000000002 815 L 1460.3680000000002 816.19 C 1462.8287269776451 818.3523435655236 1465.2579821402753 820.5502410936175 1467.6550000000002 822.783 C 1468.6540000000002 823.686 1469.659 824.569 1470.6830000000002 825.442 C 1476.2520000000002 830.201 1481.4530000000002 835.298 1486.6190000000001 840.488 Q 1488.4230000000002 842.298 1490.2350000000001 844.1010000000001 C 1495.43 849.2750000000001 1500.4810000000002 854.5140000000001 1505.23 860.1000000000001 C 1506.245211772348 861.2800021743489 1507.271927433857 862.4500580093801 1508.31 863.6100000000001 C 1515.744 871.9670000000001 1522.705 880.6060000000001 1529.403 889.5630000000001 Q 1531.789 892.7420000000001 1534.246 895.868 C 1540.5110000000002 903.8660000000001 1546.314 912.1070000000001 1551.928 920.5740000000001 Q 1552.9940000000001 922.182 1554.064 923.7890000000001 C 1563.219 937.5690000000001 1571.874 951.5830000000001 1580 965.9990000000001 L 1580.892 967.5810000000001 C 1597.472 997.0400000000001 1611.71 1027.5240000000001 1624 1059.0000000000002 L 1624.713 1060.8260000000002 C 1627.733 1068.5860000000002 1630.613 1076.3920000000003 1633.382 1084.2460000000003 Q 1634.011 1086.0280000000002 1634.642 1087.8090000000004 C 1648.555 1127.0290000000005 1659.499 1167.5220000000004 1666.7150000000001 1209.7970000000005 C 1674.335 1255.2250000000004 1674.335 1255.2250000000004 1674.188 1275.6870000000006 Q 1674.143 1279.3450000000005 1674 1283.0000000000007 L 1672 1283.0000000000007 L 1672.145 1284.1720000000007 Q 1672.833 1289.7290000000007 1673.513 1295.2860000000007 Q 1673.8629999999998 1298.1420000000007 1674.216 1300.9960000000008 C 1674.759325744873 1305.3601299914426 1675.2816651158464 1309.7268471323175 1675.783 1314.0959999999995 Q 1675.9779999999998 1315.8210000000006 1676.183 1317.5430000000006 C 1677.499 1328.8730000000005 1677.243 1340.3600000000006 1677.25 1351.7500000000007 L 1677.253 1353.4260000000006 C 1677.273 1371.9260000000006 1676.518 1390.0200000000007 1674.1999999999998 1408.3830000000007 C 1673.9516935833883 1410.4272646527845 1673.7183539992018 1412.4733194638372 1673.4999999999995 1414.5210000000009 C 1672.2589999999998 1425.9060000000006 1670.3379999999997 1437.1550000000007 1668.1969999999997 1448.4010000000007 Q 1667.9069999999997 1449.9320000000007 1667.6199999999997 1451.4660000000008 C 1665.4119999999996 1463.1850000000009 1665.4119999999996 1463.1850000000009 1663.7229999999997 1467.8490000000008 C 1663.1836848865883 1469.2466137624604 1662.6091684925243 1470.630388013978 1661.9999999999998 1471.999000000001 C 1655.2949999999998 1477.539000000001 1648.1689999999999 1482.177000000001 1640.7199999999998 1486.643000000001 Q 1639.3359999999998 1487.475000000001 1637.9539999999997 1488.3090000000009 C 1627.3779999999997 1494.689000000001 1616.6669999999997 1500.779000000001 1605.7429999999997 1506.546000000001 C 1603.8819631375372 1507.5299418565553 1602.0262692516358 1508.5239564367166 1600.1759999999995 1509.5280000000012 C 1560.5079999999998 1531.038000000001 1517.9899999999998 1547.4350000000009 1475.2689999999998 1561.765000000001 C 1462.2979999999998 1566.091000000001 1449.2129999999997 1569.922000000001 1435.9989999999998 1573.438000000001 L 1434.6719999999998 1573.792000000001 Q 1430.3419999999999 1574.9420000000011 1425.9999999999998 1576.059000000001 L 1424.9029999999998 1576.3440000000012 C 1420.2919999999997 1577.5380000000011 1415.7309999999998 1578.4300000000012 1410.9999999999998 1579.0000000000011 C 1412.5349999999999 1573.774000000001 1414.1199999999997 1568.570000000001 1415.8319999999999 1563.398000000001 C 1424.619 1536.795000000001 1430.869 1509.690000000001 1434.9119999999998 1481.9710000000011 C 1435.3819999999998 1478.6910000000012 1435.8199999999997 1475.4090000000012 1436.2499999999998 1472.1250000000011 L 1436.4839999999997 1470.3800000000012 C 1437.0627229210302 1465.9286213613739 1437.5681247325524 1461.4680169826358 1438 1457.0000000000002 L 1438.13 1455.7 C 1439.9060000000002 1437.7 1440.3200000000002 1419.7730000000001 1440.257 1401.704 Q 1440.247 1398.042 1440.261 1394.3799999999999 C 1440.341 1370.1989999999998 1439.338 1346.1799999999998 1435.965 1322.2099999999998 L 1435.495 1318.8239999999998 C 1430.5439999999999 1283.0439999999999 1422.779 1248.166 1411.704 1213.7789999999998 C 1406.1589999999999 1196.6349999999998 1399.952 1179.9409999999998 1392.647 1163.4649999999997 C 1391.8436030846287 1161.6372245891323 1391.0475965834921 1159.8062096348845 1390.259 1157.9719999999998 C 1380.408 1135.1649999999997 1368.917 1113.2119999999998 1355.999 1091.9999999999998 L 1355.196 1090.6779999999999 C 1348.183 1079.1619999999998 1340.7189999999998 1068.0169999999998 1332.801 1057.1059999999998 C 1331.977543643057 1055.9679584280059 1331.1558759620918 1054.8286236882334 1330.336 1053.6879999999996 C 1322.259553889223 1042.4530279738756 1313.7470562985873 1031.538029887599 1304.8179999999998 1020.9679999999998 C 1303.8036378042866 1019.7649316632701 1302.7919686054722 1018.5595953130518 1301.783 1017.3519999999997 C 1296.5457831966319 1011.1064653222821 1291.144908945574 1005.0000128829647 1285.586 999.0389999999998 L 1284.688 998.0759999999999 C 1278.124 991.0529999999999 1271.375 984.2199999999999 1264.566 977.4359999999999 C 1262.9299172658377 975.8040828037972 1261.2965816202918 974.169413823031 1259.666 972.5320000000004 C 1247.1219999999998 959.9499999999999 1247.1219999999998 959.9499999999999 1240.825 954.6919999999999 C 1239.713 953.7589999999999 1238.6200000000001 952.805 1237.525 951.8519999999999 C 1222.6042339349938 938.8439011226342 1207.0786761579918 926.5462578083285 1190.9999999999998 914.9999999999999 L 1189.759 914.108 C 1164.157 895.7199999999999 1137.199 879.5759999999999 1109.398 864.746 Q 1107.29 863.62 1105.184 862.4879999999999 C 1085.34 851.8449999999999 1065.043 842.5329999999999 1044.1879999999999 834.063 L 1043.1539999999998 833.6419999999999 C 1034.8289999999997 830.261 1026.4729999999997 826.9949999999999 1017.9999999999998 823.9999999999999 L 1017.9999999999998 821.9999999999999 C 1023.3989999999998 819.7499999999999 1023.3989999999998 819.7499999999999 1025.9999999999998 818.9999999999999 C 1027.6449999999998 818.7999999999998 1027.6449999999998 818.7999999999998 1028.9999999999998 818.8129999999999 C 1029.6599999999999 818.8729999999998 1030.3199999999997 818.9359999999999 1030.9999999999998 818.9999999999999 L 1032.9999999999998 814.9999999999999 C 1037.9228210443046 812.4759899229983 1042.869714811865 809.999209552852 1047.8399999999992 807.5700000000003 Q 1049.4829999999997 806.762 1051.1249999999998 805.9469999999999 C 1071.9249999999997 795.6969999999999 1094.4149999999997 788.2559999999999 1116.649 781.7769999999999 C 1123.733 779.727 1130.856 777.8269999999999 1137.9989999999998 775.9999999999999 L 1139.7389999999998 775.5549999999998 C 1157.321 771.0799999999998 1175.0879999999997 767.8329999999999 1192.9989999999998 764.9999999999999 L 1194.2389999999998 764.8019999999999 C 1215.1449999999998 761.4649999999999 1236.274 760.6149999999999 1257.4119999999998 760.6819999999999" stroke-linecap="round" />
</g>
		<g transform="matrix(0.13965044216062572 0 0 0.1396504421606257 -8.467579395651192 -25.95728230834994)"  >
<path style="stroke: none; stroke-width: 1; stroke-dasharray: none; stroke-linecap: butt; stroke-dashoffset: 0; stroke-linejoin: miter; stroke-miterlimit: 4; fill: rgb(20,185,129); fill-rule: nonzero; opacity: 1;"  paint-order="stroke"  transform=" translate(-965.4321043890461, -800.01538195434)" d="M 1046.308 361.088 C 1047.8891754901417 361.29578255337725 1049.456117579498 361.600354417293 1051 362 C 1053.139 362.803 1055.161 363.788 1057.199 364.817 L 1058.969 365.689 Q 1061.343 366.865 1063.704 368.065 Q 1065.191 368.817 1066.682 369.565 C 1080.358 376.448 1093.515 384.068 1106.547 392.104 Q 1108.6000000000001 393.37 1110.657 394.628 C 1130.033 406.513 1148.711 419.513 1167 433 L 1168.024 433.755 C 1182.53 444.461 1196.857 455.443 1210.733 466.955 Q 1212.7369999999999 468.604 1214.758 470.231 C 1220.626 474.973 1226.285 479.889 1231.861 484.96999999999997 C 1233.5589656019217 486.4969704749426 1235.2720500331664 488.0070449006164 1237 489.49999999999994 C 1244.551 496.08599999999996 1251.936 502.8399999999999 1259.25 509.68799999999993 L 1260.281 510.65099999999995 C 1264.6 514.6909999999999 1268.849 518.788 1273 523 L 1273 526 L 1271.656 526.326 C 1233.234 535.6560000000001 1195.822 546.532 1159.489 562.304 C 1123.733 577.963 1089.133 596.318 1056.604 617.928 C 1050.3110000000001 622.156 1044.132 626.544 1038 631 L 1036.911 631.79 C 1027.266 638.805 1017.9350000000001 646.1769999999999 1008.729 653.757 C 1006.7952121020638 655.3497941323056 1004.8528505374709 656.9321504644014 1002.9019999999999 658.5039999999999 C 997.5770523423779 662.8084949859857 992.3833503862966 667.272864325016 987.3279999999997 671.8910000000002 C 985.5838259675689 673.476134332632 983.8135844402877 675.0323466583097 982.0180000000001 676.5589999999999 C 978.0310000000002 679.9659999999999 974.3290000000002 683.6259999999999 970.6510000000002 687.3589999999998 C 968.1090000000002 689.9389999999999 965.5950000000001 692.4439999999998 962.7500000000002 694.6879999999998 C 961.1630000000002 695.9479999999998 959.7440000000003 697.2399999999998 958.4020000000003 698.7539999999998 C 957.5351022478599 699.7580862218573 956.6727600564893 700.7660965762078 955.8150000000003 701.7779999999998 C 953.5000000000002 704.4869999999997 951.0420000000003 707.0049999999998 948.5000000000002 709.4999999999998 C 944.8576339231713 713.0984951786462 941.3749498642572 716.8551094552618 938.0620000000002 720.7589999999998 C 937.0494229291932 721.9400589157657 936.031746760329 723.1167365692509 935.0090000000002 724.2889999999998 C 927.7386985102613 732.6373948042681 920.732248271267 741.2119505705957 913.9999999999998 750 L 913.293 750.922 C 895.26 774.407 879.247 798.99 864.695 824.7710000000001 Q 863.6350000000001 826.6460000000001 862.5680000000001 828.517 C 846.339 857.076 833.3510000000001 887.3820000000001 822.3190000000001 918.297 C 810.8850000000001 950.717 802.4110000000001 984.099 796.7500000000001 1018.001 C 790.2080000000001 1057.577 787.3910000000001 1097.269 787.8130000000001 1137.369 C 788.1730000000001 1167.528 791.0010000000001 1197.7549999999999 796.3870000000001 1227.443 C 797.0780000000001 1231.278 797.551 1235.132 798.0000000000001 1239.001 C 796.2540000000001 1238.301 796.2540000000001 1238.301 795.1410000000001 1237.741 L 794 1237 C 792.497 1235.512 791.229 1233.86 789.938 1232.188 C 789.1394334597603 1231.180459914974 788.3397663157792 1230.1737926474361 787.5389999999999 1229.1679999999994 L 786.912 1228.3770000000002 C 785.057 1226.045 783.111 1223.7970000000003 781.1550000000001 1221.5510000000002 C 762.6020000000001 1200.1840000000002 746.854 1175.7590000000002 732.2500000000001 1151.563 C 715.9240000000001 1124.276 702.2970000000001 1095.3690000000001 690.9310000000002 1065.6870000000001 C 679.7750000000002 1036.1740000000002 671.8310000000001 1005.4990000000001 665.8710000000002 974.5370000000001 C 661.23 949.815 658.357 924.16 658 899 L 657.97 897.199 C 657.6120000000001 875.389 658.1320000000001 853.7379999999999 660 831.9989999999999 L 660.147 830.2829999999999 C 662.58 802.4219999999999 667.923 774.8149999999999 675.13 747.8089999999999 C 678.37 735.7549999999999 682.067 723.8449999999998 686 711.9989999999998 L 686.537 710.3749999999998 C 695.73 682.62 708.176 655.749 722 630 C 726.451 621.875 731.192 613.918 736 606 L 737.406 603.674 C 743.3539999999999 593.851 749.7339999999999 584.3439999999999 756.334 574.9499999999999 Q 757.31 573.559 758.281 572.164 C 767.806 558.52 778.138 545.599 789 533 L 790.015 531.822 C 792.3109618807111 529.1632124504871 794.630385862242 526.5247760012463 796.9729999999998 523.9070000000002 Q 800.3399999999999 520.133 803.74 516.39 Q 805.014 514.985 806.283 513.576 C 812.7520000000001 506.40500000000003 819.432 499.46500000000003 826.25 492.625 L 827.389 491.478 C 833.923 484.908 840.696 478.706 848 473 L 849 466 C 851.552 463.325 854.027 460.887 856.988 458.676 C 858.0915702367472 457.88165250142004 859.1999237487449 457.0939714942469 860.3130000000001 456.313 L 861.2160000000001 455.67199999999997 C 866.6680000000001 451.80899999999997 872.2880000000001 448.24499999999995 877.9770000000001 444.74499999999995 C 882.136606506763 442.18472231150656 886.2405591238635 439.53510727794594 890.2860000000001 436.798 C 900 430.227 909.966 424.068 920 418 L 921.408 417.148 C 949.568 400.12600000000003 978.794 385.16200000000003 1009.49 373.24300000000005 C 1015.9628085836224 370.7472273690097 1022.4666530256985 368.33270428884794 1028.9999999999995 366.0000000000002 L 1030.408 365.496 C 1032.744615507092 364.6591089476792 1035.0918062690655 363.85204335547104 1037.4489999999996 363.07500000000005 Q 1038.858 362.608 1040.2609999999997 362.13 L 1041.9339999999997 361.61 L 1043.3099999999997 361.17 C 1044.9999999999998 361 1044.9999999999998 361 1046.3079999999998 361.088" stroke-linecap="round" />
</g>
		<g transform="matrix(0.13965044216062572 0 0 0.1396504421606257 -27.68241455624679 54.032099781684295)"  >
<path style="stroke: none; stroke-width: 1; stroke-dasharray: none; stroke-linecap: butt; stroke-dashoffset: 0; stroke-linejoin: miter; stroke-miterlimit: 4; fill: rgb(20,185,129); fill-rule: nonzero; opacity: 1;"  paint-order="stroke"  transform=" translate(-827.8397354476369, -1372.7982593478155)" d="M 399 1171 L 401 1171 L 402.215 1172.398 Q 405.09799999999996 1175.7079999999999 408 1179 L 409.054 1180.199 C 416.203 1188.314 423.59599999999995 1196.217 431.827 1203.251 C 434.366 1205.424 436.825 1207.674 439.273 1209.9479999999999 C 445.31800000000004 1215.5579999999998 451.543 1220.8659999999998 458 1225.9999999999998 L 460.327 1227.8659999999998 C 464.18673167385765 1230.9504167053435 468.07793553053864 1233.9952428877239 471.99999999999994 1237 L 473.02 1237.784 C 498.683 1257.4620000000002 526.2379999999999 1274.488 554.899 1289.43 C 580.747 1302.857 607.574 1314.218 635 1324 L 636.776 1324.637 C 667.756 1335.741 699.656 1343.982 732 1350 L 733.526 1350.288 C 746.184 1352.674 758.909 1354.456 771.694 1355.997 L 774.731 1356.3690000000001 C 799.925 1359.4450000000002 825.1 1360.383 850.454 1360.315 Q 852.136 1360.3110000000001 853.818 1360.31 C 875.649 1360.2849999999999 897.2909999999999 1359.999 918.978 1357.25 C 921.1316223098206 1356.9842045729483 923.2870041818222 1356.732865579523 925.444 1356.496 C 962.5079999999999 1352.3390000000002 999.429 1345.2620000000002 1035.243 1334.77 C 1073.808 1323.398 1111.501 1309.122 1161.557 1285.241 C 1177.272 1277.393 1192.574 1268.891 1207.6200000000001 1259.83 Q 1209.623 1258.626 1211.6280000000002 1257.4289999999999 C 1232.7220000000002 1244.7979999999998 1253.3380000000002 1231.1 1272.6050000000002 1215.811 L 1273.8370000000002 1214.845 Q 1274.9550000000002 1213.965 1276.0600000000002 1213.068 C 1277.0190000000002 1212.315 1277.9500000000003 1211.621 1279.0000000000002 1211 C 1280.3430000000003 1210.525 1281.5910000000001 1210.255 1283.0000000000002 1210 C 1282.8194393233746 1212.0224825703401 1282.485139653032 1214.0282805923944 1282.0000000000002 1216 C 1281.1750000000002 1217.927 1280.1790000000003 1219.73 1279.1360000000002 1221.546 C 1278.218677207064 1223.1599725600952 1277.3192885272504 1224.7840725037763 1276.438 1226.4180000000001 L 1275.8490000000002 1227.499 C 1273.5100000000002 1231.842 1271.4250000000002 1236.307 1269.324 1240.769 C 1254.8200000000002 1271.527 1237.3410000000001 1300.331 1217.7330000000002 1328.111 C 1211.5510000000002 1336.8180000000002 1204.9700000000003 1345.161 1198.1580000000001 1353.382 C 1196.3136302342427 1355.616699336038 1194.4974861286187 1357.8745451560437 1192.71 1360.155 C 1189.0420000000001 1364.817 1185.16 1369.242 1181.16 1373.6209999999999 C 1179.192 1375.7769999999998 1177.28 1377.9759999999999 1175.375 1380.1879999999999 C 1172.904 1383.0449999999998 1170.311 1385.7279999999998 1167.611 1388.369 C 1165.585 1390.369 1163.7160000000001 1392.455 1161.875 1394.625 C 1154.951 1402.717 1147.195 1410.316 1139.078 1417.203 C 1136.907 1419.055 1134.824 1420.999 1132.734 1422.94 C 1127.6599999999999 1427.651 1122.4869999999999 1432.1670000000001 1117.086 1436.5040000000001 C 1114.7572780221014 1438.3815932709451 1112.4497980538579 1440.2853809188273 1110.164 1442.2150000000001 C 1087.096 1461.5780000000002 1061.786 1478.8120000000001 1035.708 1493.8860000000002 C 1022.729 1501.333 1009.5580000000001 1508.4550000000002 996.0920000000001 1514.9830000000002 C 994.6293866439697 1515.692640911092 993.1697075521954 1516.4083136697213 991.7130000000002 1517.13 C 963.0010000000001 1531.334 933.0830000000001 1542.255 902.383 1551.2890000000002 C 870.421 1560.5610000000001 837.5630000000001 1566.9700000000003 804.5 1570.688 C 800.004 1571.172 795.503 1571.593 791 1572 L 789.291 1572.158 C 756.85 1575.144 723.619 1575.406 691.1360000000001 1572.8429999999998 C 666.946 1570.819 642.8510000000001 1567.4919999999997 619.0000000000001 1562.9999999999998 L 617.3530000000001 1562.6899999999998 C 594.528 1558.349 572.2310000000001 1551.6729999999998 550.0000000000001 1544.9999999999998 L 548.9730000000001 1544.6919999999998 C 532.9350000000001 1539.8779999999997 517.706 1533.7419999999997 502.51900000000006 1526.7019999999998 Q 500.27900000000005 1525.6679999999997 498.0350000000001 1524.6439999999998 C 471.8250000000001 1512.6519999999998 446.8750000000001 1498.0279999999998 423.1380000000001 1481.6919999999998 C 420.416518297661 1479.807301023471 417.70382225630215 1477.909947144457 414.99999999999983 1475.9999999999998 L 413.806 1475.159 C 404.676 1468.72 395.631 1462.227 387.14599999999996 1454.9450000000002 C 386.3415100647613 1454.2843183273542 385.5157400042279 1453.6499828446665 384.66999999999996 1453.0430000000001 L 383.33199999999994 1452.066 L 382.1239999999999 1451.2250000000001 L 381 1450 C 380.375 1448.817 379.888 1447.635 379.426 1446.378 C 378.728 1444.1209999999999 378.34299999999996 1441.854 378 1439.52 L 377.754 1437.912 C 377.58299050668325 1436.7801152178338 377.4149899132072 1435.6477778844258 377.2499999999999 1434.5149999999999 C 377.00853191567904 1432.888365790445 376.758528472632 1431.263010072715 376.50000000000006 1429.6390000000001 C 373.049 1406.9630000000002 372.622 1384.073 372.685 1361.1830000000002 Q 372.689 1359.0370000000003 372.691 1356.8890000000001 C 372.71299999999997 1335.4630000000002 373.251 1314.236 375.775 1292.941 C 376.00399999999996 1290.963 376.217 1288.983 376.42199999999997 1287.002 C 379.544 1256.927 384.474 1227.031 391.24999999999994 1197.562 L 391.50399999999996 1196.456 C 393.07399999999996 1189.627 394.68499999999995 1182.811 396.67199999999997 1176.09 L 397.03599999999994 1174.85 C 397.33099999999996 1173.8909999999998 397.6619999999999 1172.944 397.99999999999994 1172 z" stroke-linecap="round" />
</g>
		<g transform="matrix(0.13965044216062572 0 0 0.1396504421606257 -15.581294300185505 59.46286605286389)"  >
<path style="stroke: none; stroke-width: 1; stroke-dasharray: none; stroke-linecap: butt; stroke-dashoffset: 0; stroke-linejoin: miter; stroke-miterlimit: 4; fill: rgb(13,131,88); fill-rule: nonzero; opacity: 1;"  paint-order="stroke"  transform=" translate(-914.492667359894, -1416.0609659920997)" d="M 1280 1217 C 1280.725 1218.327 1281.403 1219.614 1282 1221 C 1282.31 1222.358 1282.53 1223.559 1282.66 1224.93 L 1282.776 1226.0910000000001 C 1283.248 1231.7700000000002 1282.828 1237.4520000000002 1282.438 1243.1250000000002 L 1282.308 1245.0530000000003 C 1280.497 1270.9270000000004 1276.148 1296.7190000000003 1269.908 1321.8850000000002 C 1263.1819999999998 1348.7600000000002 1253.9379999999999 1374.7180000000003 1242.6719999999998 1400.0230000000001 C 1233.5009999999997 1420.383 1222.2379999999998 1439.9240000000002 1209.716 1458.4030000000002 C 1197.366 1476.4640000000002 1183.7679999999998 1493.5650000000003 1169.043 1509.7380000000003 C 1167.4674431054211 1511.4778260989892 1165.9182662597702 1513.241360747901 1164.396 1515.0280000000002 C 1158.1589999999999 1522.3010000000002 1151.3229999999999 1529.0210000000002 1144.039 1535.2380000000003 C 1142.589 1536.4780000000003 1141.175 1537.7480000000003 1139.773 1539.0430000000003 C 1127.423 1550.4390000000003 1113.83 1560.4780000000003 1100 1570.0000000000005 L 1099.016 1570.6780000000006 C 1094.18 1573.9880000000005 1089.219 1577.0350000000005 1083.9 1579.5120000000006 C 1068.928 1586.2440000000006 1052.875 1590.7060000000006 1037.005 1594.7460000000005 C 999.5270000000002 1604.2190000000005 961.1340000000001 1610.2910000000006 922.5870000000001 1613.1840000000007 C 881.3610000000001 1616.1960000000006 839.9370000000001 1615.8660000000007 782.364 1610.9980000000007 C 764.827 1609.1970000000008 747.4580000000001 1606.4820000000007 730.11 1603.3760000000007 Q 727.069 1602.8340000000007 724.025 1602.3060000000007 C 679.6709999999999 1594.5320000000008 636.321 1581.8880000000008 589 1565.0000000000007 L 587.348 1564.4040000000007 C 574.365 1559.7120000000007 561.548 1554.7640000000006 549 1549.0000000000007 L 548 1545.0000000000007 L 546 1545.0000000000007 L 547 1543.0000000000007 L 548.129 1543.3390000000006 C 589.142 1555.6480000000006 630.168 1565.1660000000006 672.732 1570.2050000000006 Q 677.828 1570.7850000000005 682.938 1571.2500000000007 L 684.0939999999999 1571.3570000000007 C 687.06 1571.6230000000007 690.0279999999999 1571.8190000000006 692.9999999999999 1572.0000000000007 L 693.9719999999999 1572.0600000000006 C 707.9199999999998 1572.9230000000007 721.8389999999998 1573.2040000000006 735.8119999999999 1573.1880000000006 L 737.3549999999999 1573.1870000000006 C 755.3119999999999 1573.1750000000006 773.1139999999999 1572.7290000000005 790.9999999999999 1571.0000000000007 L 791.9889999999999 1570.9050000000007 C 826.0409999999999 1567.6400000000006 859.9789999999999 1562.0390000000007 892.9999999999999 1553.0000000000007 C 914.3139999999999 1547.0730000000008 935.5279999999999 1540.4090000000008 955.9999999999999 1532.0000000000007 L 957.6359999999999 1531.3290000000006 C 981.7259999999999 1521.4120000000007 1004.9969999999998 1510.5010000000007 1027.5339999999999 1497.4250000000006 C 1029.64134946732 1496.2052418330022 1031.7590936008862 1495.0035312078637 1033.8869999999997 1493.8200000000006 C 1056.673 1481.1010000000006 1078.668 1466.3580000000006 1099 1450.0000000000007 L 1100.385 1448.8910000000008 C 1106.396 1444.0610000000008 1112.286 1439.0890000000009 1118.155 1434.0910000000008 C 1121.1885223845213 1431.5102819781273 1124.2598548512356 1428.9743407999774 1127.3679999999997 1426.4840000000008 C 1131.772 1422.9500000000007 1135.866 1419.2740000000008 1139.8039999999999 1415.2270000000008 C 1142.034137505514 1412.936570161549 1144.3728232117 1410.7543975255974 1146.812 1408.6880000000008 C 1154.273 1402.3230000000008 1161.29 1395.1940000000009 1167.6339999999998 1387.7200000000007 C 1169.4479999999999 1385.5910000000008 1171.3619999999999 1383.6280000000006 1173.3749999999998 1381.6880000000008 C 1176.7439999999997 1378.4170000000008 1179.6649999999997 1374.8320000000008 1182.6019999999999 1371.1750000000009 C 1184.892150513293 1368.3299859762853 1187.2761304914682 1365.5617943396244 1189.7499999999998 1362.875000000001 C 1195.1299999999999 1356.9650000000008 1199.8289999999997 1350.4840000000008 1204.6359999999997 1344.1090000000008 C 1206.2011300611414 1342.0352898339738 1207.7979846582218 1339.985715290581 1209.4259999999997 1337.961000000001 C 1224.8049999999996 1318.778000000001 1237.7479999999996 1297.257000000001 1249.9999999999998 1276.000000000001 L 1250.7739999999997 1274.662000000001 C 1261.5569999999996 1255.989000000001 1270.6819999999996 1236.430000000001 1279.9999999999995 1217.000000000001" stroke-linecap="round" />
</g>
		<g transform="matrix(0.13965044216062572 0 0 0.1396504421606257 -44.25559798136559 -19.7013045439055)"  >
<path style="stroke: none; stroke-width: 1; stroke-dasharray: none; stroke-linecap: butt; stroke-dashoffset: 0; stroke-linejoin: miter; stroke-miterlimit: 4; fill: rgb(13,131,88); fill-rule: nonzero; opacity: 1;"  paint-order="stroke"  transform=" translate(-704.7891170606664, -847)" d="M 850 463 C 850.056 465.283 849.841 467.43 849.5 469.688 L 849.219 471.574 L 849 473 Q 846.658 475.16 844.312 477.315 L 842.73 478.772 C 840.2280000000001 481.079 837.727 483.384 835.145 485.601 C 830.103 489.931 825.35 494.496 820.663 499.206 Q 818.826 501.05 816.979 502.885 C 812.682 507.178 808.551 511.556 804.5930000000001 516.162 C 803.1007859642389 517.8862787896131 801.5721077184783 519.5786606381366 800.008 521.238 L 799.291 522.003 L 797.859 523.529 C 792.7477505852704 528.9839632466458 787.8594153513824 534.6435965806327 783.2059999999999 540.4940000000003 C 782.1213846525721 541.8462451493477 781.0290334035163 543.1922672255413 779.9289999999999 544.5319999999999 C 772.4839999999999 553.613 765.536 562.9630000000001 758.915 572.6600000000001 L 756.9989999999999 575.4610000000001 C 740.172 600.029 725.349 625.358 712 652 L 711.273 653.446 C 698.317 679.265 688.35 706.369 680 734 C 677.497 742.436 675.38 750.972 673.351 759.533 C 673.0114017222973 760.9503882183943 672.6647307371043 762.3660725204278 672.311 763.78 C 665.422 791.429 661.616 819.852 659.5980000000001 848.25 C 659.2510000000001 853.496 659.095 858.744 659.0000000000001 864 L 658.9670000000001 865.835 C 658.4060000000001 899.048 660.1250000000001 932.119 665.3090000000001 964.9590000000001 C 666.9000000000001 974.701 668.8560000000001 984.3660000000001 671.0000000000001 994.0000000000001 L 671.2340000000002 995.0510000000002 C 677.6380000000001 1023.7710000000002 685.9650000000001 1051.9370000000001 697.2190000000002 1079.15 C 710.0010000000002 1109.871 725.2130000000002 1139.497 743.0820000000001 1167.5710000000001 C 754.7120000000001 1185.6750000000002 767.1990000000001 1203.5030000000002 781.1050000000001 1219.9420000000002 C 782.2068282502056 1221.2482860117327 783.3018431123012 1222.560303819102 784.3899999999998 1223.8779999999997 C 785.2575424292833 1224.9207187395625 786.1275448528202 1225.961388305188 787.0000000000001 1227 L 786 1231 C 783.274 1230.526 780.609 1229.933 778 1229 C 774.677 1227.479 771.596 1225.492 768.5 1223.562 L 765.848 1221.9389999999999 C 758.05 1217.1399999999999 750.476 1212.043 743.0219999999999 1206.7279999999998 Q 741.4399999999999 1205.6019999999999 739.8539999999999 1204.4809999999998 C 713.496 1185.8279999999997 689.06 1165.3419999999999 666.305 1142.4219999999998 C 662.704 1138.7769999999998 659.233 1135.052 655.9459999999999 1131.1209999999999 C 654.8299999999999 1129.7979999999998 653.694 1128.493 652.559 1127.1879999999999 C 645.553 1119.1 639.059 1110.6809999999998 632.757 1102.0369999999998 Q 631.6289999999999 1100.4929999999997 630.496 1098.9529999999997 C 622.26 1087.73 614.908 1076.082 608 1064 L 607.229 1062.652 C 595.445 1042.006 586.004 1020.714 577.898 998.375 C 570.86 978.734 565.9830000000001 958.409 562.452 937.859 C 560.375 925.34 559.47 912.76 559.578 900.071 C 559.7339999999999 891.0550000000001 560.747 882.273 562.451 873.424 C 562.945 870.944 563.47 868.472 564 866 L 564.316 864.501 C 569.874 838.1519999999999 578.241 812.65 588.275 787.694 C 599.043 761.007 610.888 735.087 625 710 L 626.378 707.54 C 644.587 675.117 665.926 644.3059999999999 689.4380000000001 615.5 C 693.2150000000001 610.901 697.0620000000001 606.362 700.9200000000001 601.832 C 703.4129090003894 598.9049148415772 705.8605333036218 595.9395623249262 708.2620000000001 592.937 C 712.864 587.19 717.8000000000001 581.816 722.865 576.477 L 724.57 574.6759999999999 L 725.374 573.8269999999999 C 727.0882693314238 572.0020746204931 728.761030683167 570.1385978026951 730.3910000000001 568.2379999999998 C 734.3470000000001 563.6339999999998 738.542 559.3109999999998 742.84 555.0269999999998 L 745.039 552.8249999999998 Q 747.3249999999999 550.5379999999998 749.615 548.2549999999998 Q 752.515 545.3609999999998 755.4060000000001 542.4599999999998 Q 757.671 540.1899999999998 759.9390000000001 537.9269999999998 C 760.6509174346377 537.21658344233 761.3615851998486 536.5049156755733 762.071 535.7919999999998 C 766.321 531.5319999999998 770.6700000000001 527.4479999999998 775.235 523.5259999999998 C 777.828 521.2989999999999 780.312 518.9549999999998 782.812 516.6249999999999 C 787.451 512.3309999999999 792.235 508.2729999999999 797.16 504.3089999999999 C 799.725 502.2389999999999 802.232 500.1089999999999 804.735 497.9659999999999 C 811.635 492.0569999999999 818.74 486.4599999999999 826 480.9999999999999 L 827.187 480.1069999999999 C 832.7569099095834 475.9157764640599 838.333249811946 471.7331048701292 843.9160000000016 467.5589999999974 Q 846.96 465.282 850 463" stroke-linecap="round" />
</g>
		<g transform="matrix(0.13965044216062572 0 0 0.1396504421606257 46.01343309801427 5.29981296526141)"  >
<path style="stroke: none; stroke-width: 1; stroke-dasharray: none; stroke-linecap: butt; stroke-dashoffset: 0; stroke-linejoin: miter; stroke-miterlimit: 4; fill: rgb(13,131,88); fill-rule: nonzero; opacity: 1;"  paint-order="stroke"  transform=" translate(-1352.6103341652217, -1023.8392008410681)" d="M 1257.412 760.682 Q 1260.127 760.69 1262.8410000000001 760.692 C 1280.1640000000002 760.729 1297.2040000000002 761.102 1314.355 763.75 C 1316.088 764.013 1317.824 764.26 1319.561 764.504 C 1344.427 768.019 1368.9109999999998 773.742 1392.799 781.503 C 1396.2114213994096 782.6321165036393 1399.611617496213 783.7978504007492 1402.9989999999998 785 L 1404.333 785.47 C 1417.911 790.308 1430.958 796.399 1443.4930000000002 803.517 C 1448.0580000000002 806.173 1452.2330000000002 809.239 1456.2820000000002 812.625 Q 1457.6460000000002 813.807 1459.0000000000002 815 L 1460.3680000000002 816.19 C 1462.8287269776451 818.3523435655236 1465.2579821402753 820.5502410936175 1467.6550000000002 822.783 C 1468.6540000000002 823.686 1469.659 824.569 1470.6830000000002 825.442 C 1476.2520000000002 830.201 1481.4530000000002 835.298 1486.6190000000001 840.488 Q 1488.4230000000002 842.298 1490.2350000000001 844.1010000000001 C 1495.43 849.2750000000001 1500.4810000000002 854.5140000000001 1505.23 860.1000000000001 C 1506.245211772348 861.2800021743489 1507.271927433857 862.4500580093801 1508.31 863.6100000000001 C 1515.744 871.9670000000001 1522.705 880.6060000000001 1529.403 889.5630000000001 Q 1531.789 892.7420000000001 1534.246 895.868 C 1540.5110000000002 903.8660000000001 1546.314 912.1070000000001 1551.928 920.5740000000001 Q 1552.9940000000001 922.182 1554.064 923.7890000000001 C 1563.219 937.5690000000001 1571.874 951.5830000000001 1580 965.9990000000001 L 1580.892 967.5810000000001 C 1597.472 997.0400000000001 1611.71 1027.5240000000001 1624 1059.0000000000002 L 1624.713 1060.8260000000002 C 1627.733 1068.5860000000002 1630.613 1076.3920000000003 1633.382 1084.2460000000003 Q 1634.011 1086.0280000000002 1634.642 1087.8090000000004 C 1648.555 1127.0290000000005 1659.499 1167.5220000000004 1666.7150000000001 1209.7970000000005 C 1674.335 1255.2250000000004 1674.335 1255.2250000000004 1674.188 1275.6870000000006 Q 1674.143 1279.3450000000005 1674 1283.0000000000007 L 1672 1283.0000000000007 L 1671 1287.0000000000007 L 1670.713 1285.4940000000006 C 1662.993 1245.1560000000006 1653.349 1206.3140000000005 1638.816 1167.8400000000006 C 1628.631 1141.0780000000007 1615.933 1115.1370000000006 1601.438 1090.4580000000005 C 1600.118181502309 1088.1996060811905 1598.816141252647 1085.9308692815998 1597.5320000000002 1083.6520000000005 C 1584.6100000000001 1060.9360000000006 1569.3960000000002 1039.3360000000005 1553.0000000000002 1019.0000000000005 L 1552.1840000000002 1017.9850000000005 C 1550.441134799931 1015.8189589556488 1548.6907910194034 1013.6589460632822 1546.9329999999993 1011.5049999999997 C 1546.3739407408273 1010.819465480453 1545.8162729263804 1010.1327974005006 1545.2600000000002 1009.4450000000006 C 1535.7900000000002 997.7610000000005 1525.2150000000001 987.0440000000006 1514.5720000000001 976.4410000000005 C 1513.0406676200928 974.9146666937751 1511.5123313452104 973.385330416968 1509.987 971.8530000000005 C 1504.0990000000002 965.9470000000006 1498.227 960.0720000000006 1491.836 954.7060000000005 C 1490.730685313103 953.7655453143841 1489.6352914104484 952.8134926710543 1488.55 951.8500000000005 C 1480.374 944.6450000000004 1471.879 937.9240000000004 1463.164 931.3850000000004 C 1461.1583805223 929.88090837646 1459.1663002981086 928.3588470806671 1457.1879999999999 926.8190000000004 C 1434.494 909.1390000000005 1409.3999999999999 893.7440000000004 1384.0359999999998 880.2380000000004 C 1377.8999999999999 876.9940000000004 1371.7119999999998 873.8540000000004 1365.503 870.7530000000004 C 1364.0929870423754 870.0456581009026 1362.684981388913 869.3343219113931 1361.279 868.6190000000004 C 1334.899 855.2420000000004 1306.456 845.2650000000003 1278.191 836.6550000000004 C 1266.926 833.2630000000004 1255.476 830.5670000000005 1244 828.0000000000005 L 1242.145 827.5800000000005 C 1212.699 820.9240000000005 1182.51 816.8570000000005 1152.374 815.0800000000005 Q 1150.326 814.9590000000005 1148.2740000000001 814.8290000000005 C 1118.7440000000001 813.0020000000005 1088.698 813.3390000000005 1059.2610000000002 816.5940000000005 C 1055.4510000000002 817.0340000000006 1051.6480000000001 817.5040000000005 1047.8490000000002 818.0340000000006 C 1042.1860000000001 818.8160000000006 1036.718 819.1740000000005 1030.9990000000003 819.0000000000006 L 1032.9990000000003 815.0000000000006 C 1037.921821044305 812.475989922999 1042.8687148118654 809.9992095528527 1047.8389999999997 807.570000000001 Q 1049.4840000000002 806.7620000000006 1051.1250000000002 805.9470000000006 C 1071.9250000000002 795.6970000000006 1094.4150000000002 788.2560000000005 1116.6490000000003 781.7770000000006 C 1123.7330000000004 779.7270000000007 1130.8560000000004 777.8270000000006 1137.9990000000003 776.0000000000006 L 1139.7390000000003 775.5550000000005 C 1157.3210000000004 771.0800000000005 1175.0880000000002 767.8330000000005 1192.9990000000003 765.0000000000006 L 1194.2390000000003 764.8020000000006 C 1215.1450000000002 761.4650000000006 1236.2740000000003 760.6150000000006 1257.4120000000003 760.6820000000006" stroke-linecap="round" />
</g>
</g>
</g>
<g transform="matrix(1.9211538461538462 0 0 1.9211538461538462 821.7964012104071 507.433340955644)" id="text-logo"  >
<g style=""  paint-order="stroke"   >
		<g transform="matrix(1 0 0 1 -5.684342e-14 0)" id="text-logo-path-0"  >
<path style="stroke: none; stroke-width: 0; stroke-dasharray: none; stroke-linecap: butt; stroke-dashoffset: 0; stroke-linejoin: miter; stroke-miterlimit: 4; fill: rgb(255,255,255); fill-rule: nonzero; opacity: 1;"  paint-order="stroke"  transform=" translate(-180.47, 21.35)" d="M 2.2 0 L 20.07 0 C 33.24 0 40.02 -8.05 40.02 -21.35 C 40.02 -34.65 33.24 -42.7 20.07 -42.7 L 2.2 -42.7 Z M 12.44 -8.3 L 12.44 -34.4 L 18.54 -34.4 C 26.11 -34.4 29.52 -30.13 29.52 -21.41 C 29.52 -12.57 26.11 -8.3 18.54 -8.3 Z M 56.06 0 L 66.31 0 L 66.31 -42.7 L 56.06 -42.7 Z M 83.57 0 L 97.23 0 C 107.91 0 113.95 -4.39 113.95 -12.93 C 113.95 -20.68 110.84 -24.28 100.59 -26.84 C 94.67 -28.3 92.84 -29.46 92.84 -31.72 C 92.84 -33.31 93.39 -34.46 96.69 -34.46 L 110.84 -34.46 L 110.84 -42.7 L 96.14 -42.7 C 87.41 -42.7 82.35 -37.88 82.35 -30.5 C 82.35 -23.48 87.41 -18.97 95.53 -16.96 C 102.91 -15.13 103.46 -14.52 103.46 -11.83 C 103.46 -9.52 101.5 -8.23 95.71 -8.23 L 83.57 -8.23 Z M 129.99 0 L 140.24 0 L 140.24 -15.07 L 150.37 -15.07 C 162.32 -15.07 165.92 -23.85 165.92 -29.46 C 165.92 -37.27 161.1 -42.7 150.43 -42.7 L 129.99 -42.7 Z M 140.24 -23.36 L 140.24 -34.4 L 149.45 -34.4 C 153.23 -34.4 155.43 -32.27 155.43 -28.85 C 155.43 -25.44 153.23 -23.36 149.45 -23.36 Z M 173.3 0 L 183.91 0 L 187.15 -8.66 L 201.67 -8.66 L 204.9 0 L 215.51 0 L 199.29 -42.7 L 189.53 -42.7 Z M 189.89 -16.96 L 194.41 -29.4 L 198.92 -16.96 Z M 236.92 0 L 247.17 0 L 247.17 -33.18 L 258.76 -33.18 L 258.76 -42.7 L 225.33 -42.7 L 225.33 -33.18 L 236.92 -33.18 Z M 295 0 L 305.24 0 L 305.24 -8.3 L 296.7 -8.3 C 287.61 -8.3 282.98 -12.81 282.98 -21.41 C 282.98 -29.89 287.25 -34.4 295.36 -34.4 L 304.39 -34.4 L 304.39 -42.7 L 293.9 -42.7 C 279.69 -42.7 272.49 -35.14 272.49 -21.35 C 272.49 -7.56 279.69 0 295 0 Z M 348.49 0 L 358.74 0 L 358.74 -42.7 L 348.49 -42.7 L 348.49 -25.8 L 331.53 -25.8 L 331.53 -42.7 L 321.29 -42.7 L 321.29 0 L 331.53 0 L 331.53 -16.29 L 348.49 -16.29 Z" stroke-linecap="round" />
</g>
</g>
</g>
<g transform="matrix(1.9211538461538462 0 0 1.9211538461538462 260.9707852965784 525.3704402130398)" id="tagline-6ecba5f2-d584-447d-9d2d-16414c4a251a-logo"  >
<g style=""  paint-order="stroke"   >
		<g transform="matrix(1 0 0 1 0 0)" id="tagline-6ecba5f2-d584-447d-9d2d-16414c4a251a-logo-path-0"  >
<path style="stroke: none; stroke-width: 0; stroke-dasharray: none; stroke-linecap: butt; stroke-dashoffset: 0; stroke-linejoin: miter; stroke-miterlimit: 4; fill: rgb(253,150,33); fill-rule: nonzero; opacity: 1;"  paint-order="stroke"  transform=" translate(-13.149999999999999, 13.3)" d="M 1.37 0 L 12.5 0 C 20.71 0 24.93 -5.02 24.93 -13.3 C 24.93 -21.58 20.71 -26.6 12.5 -26.6 L 1.37 -26.6 Z M 7.75 -5.17 L 7.75 -21.43 L 11.55 -21.43 C 16.26 -21.43 18.39 -18.77 18.39 -13.34 C 18.39 -7.83 16.26 -5.17 11.55 -5.17 Z" stroke-linecap="round" />
</g>
</g>
</g>
</svg>